Interstate-Compressed_Ultra_Black.ufo
<glyph name="exclam" format="1">
  <advance width="212"/>
  <unicode hex="0021"/>
  <outline>
    <contour>
      <point x="196" y="418" type="line"/>
      <point x="163" y="212" type="line"/>
      <point x="49" y="212" type="line"/>
      <point x="18" y="418" type="line"/>
      <point x="18" y="700" type="line"/>
      <point x="196" y="700" type="line"/>
    </contour>
    <contour>
      <point x="200" y="88" type="curve" smooth="yes"/>
      <point x="200" y="28"/>
      <point x="163" y="-11"/>
      <point x="106" y="-11" type="curve" smooth="yes"/>
      <point x="49" y="-11"/>
      <point x="12" y="28"/>
      <point x="12" y="88" type="curve" smooth="yes"/>
      <point x="12" y="148"/>
      <point x="49" y="187"/>
      <point x="106" y="187" type="curve" smooth="yes"/>
      <point x="163" y="187"/>
      <point x="200" y="148"/>
    </contour>
  </outline>
</glyph>
<glyph name="quotedbl" format="1">
  <advance width="462"/>
  <unicode hex="0022"/>
  <outline>
    <contour>
      <point x="447" y="700" type="line"/>
      <point x="414" y="373" type="line"/>
      <point x="273" y="373" type="line"/>
      <point x="240" y="700" type="line"/>
    </contour>
    <contour>
      <point x="222" y="700" type="line"/>
      <point x="189" y="373" type="line"/>
      <point x="48" y="373" type="line"/>
      <point x="15" y="700" type="line"/>
    </contour>
  </outline>
</glyph>
<glyph name="numbersign" format="1">
  <advance width="460"/>
  <unicode hex="0023"/>
  <outline>
    <contour>
      <point x="442" y="128" type="line"/>
      <point x="405" y="128" type="line"/>
      <point x="405" y="0" type="line"/>
      <point x="241" y="0" type="line"/>
      <point x="241" y="128" type="line"/>
      <point x="219" y="128" type="line"/>
      <point x="219" y="0" type="line"/>
      <point x="55" y="0" type="line"/>
      <point x="55" y="128" type="line"/>
      <point x="18" y="128" type="line"/>
      <point x="18" y="285" type="line"/>
      <point x="55" y="285" type="line"/>
      <point x="55" y="415" type="line"/>
      <point x="18" y="415" type="line"/>
      <point x="18" y="572" type="line"/>
      <point x="55" y="572" type="line"/>
      <point x="55" y="700" type="line"/>
      <point x="219" y="700" type="line"/>
      <point x="219" y="572" type="line"/>
      <point x="241" y="572" type="line"/>
      <point x="241" y="700" type="line"/>
      <point x="405" y="700" type="line"/>
      <point x="405" y="572" type="line"/>
      <point x="442" y="572" type="line"/>
      <point x="442" y="415" type="line"/>
      <point x="405" y="415" type="line"/>
      <point x="405" y="285" type="line"/>
      <point x="442" y="285" type="line"/>
    </contour>
    <contour>
      <point x="245" y="268" type="line"/>
      <point x="245" y="432" type="line"/>
      <point x="215" y="432" type="line"/>
      <point x="215" y="268" type="line"/>
    </contour>
  </outline>
</glyph>
<glyph name="dollar" format="1">
  <advance width="389"/>
  <unicode hex="0024"/>
  <outline>
    <contour>
      <point x="102" y="694" type="curve"/>
      <point x="102" y="765" type="line"/>
      <point x="290" y="765" type="line"/>
      <point x="290" y="690" type="line"/>
      <point x="343" y="661"/>
      <point x="371" y="602"/>
      <point x="379" y="511" type="curve"/>
      <point x="228" y="480" type="line"/>
      <point x="221" y="547"/>
      <point x="209" y="567"/>
      <point x="196" y="567" type="curve" smooth="yes"/>
      <point x="184" y="567"/>
      <point x="178" y="558"/>
      <point x="178" y="539" type="curve" smooth="yes"/>
      <point x="178" y="508"/>
      <point x="190" y="488"/>
      <point x="251" y="438" type="curve" smooth="yes"/>
      <point x="347" y="360"/>
      <point x="384" y="305"/>
      <point x="384" y="185" type="curve" smooth="yes"/>
      <point x="384" y="99"/>
      <point x="351" y="38"/>
      <point x="290" y="9" type="curve"/>
      <point x="290" y="-67" type="line"/>
      <point x="102" y="-67" type="line"/>
      <point x="102" y="5" type="line"/>
      <point x="43" y="30"/>
      <point x="13" y="91"/>
      <point x="3" y="206" type="curve"/>
      <point x="160" y="237" type="line"/>
      <point x="168" y="153"/>
      <point x="178" y="133"/>
      <point x="193" y="133" type="curve" smooth="yes"/>
      <point x="207" y="133"/>
      <point x="213" y="143"/>
      <point x="213" y="168" type="curve" smooth="yes"/>
      <point x="213" y="214"/>
      <point x="195" y="246"/>
      <point x="134" y="295" type="curve" smooth="yes"/>
      <point x="47" y="365"/>
      <point x="8" y="424"/>
      <point x="8" y="518" type="curve" smooth="yes"/>
      <point x="8" y="606"/>
      <point x="40" y="666"/>
    </contour>
  </outline>
</glyph>
<glyph name="ampersand" format="1">
  <advance width="420"/>
  <unicode hex="0026"/>
  <outline>
    <contour>
      <point x="429" y="0" type="line"/>
      <point x="262" y="0" type="line"/>
      <point x="246" y="43" type="line"/>
      <point x="212" y="2"/>
      <point x="182" y="-11"/>
      <point x="137" y="-11" type="curve" smooth="yes"/>
      <point x="53" y="-11"/>
      <point x="7" y="53"/>
      <point x="7" y="170" type="curve" smooth="yes"/>
      <point x="7" y="247"/>
      <point x="31" y="317"/>
      <point x="82" y="387" type="curve"/>
      <point x="65" y="427" type="line" smooth="yes"/>
      <point x="45" y="475"/>
      <point x="34" y="510"/>
      <point x="34" y="561" type="curve" smooth="yes"/>
      <point x="34" y="649"/>
      <point x="100" y="711"/>
      <point x="214" y="711" type="curve" smooth="yes"/>
      <point x="335" y="711"/>
      <point x="370" y="609"/>
      <point x="381" y="537" type="curve"/>
      <point x="238" y="485" type="line"/>
      <point x="225" y="558"/>
      <point x="220" y="568"/>
      <point x="209" y="568" type="curve" smooth="yes"/>
      <point x="202" y="568"/>
      <point x="198" y="561"/>
      <point x="198" y="550" type="curve" smooth="yes"/>
      <point x="198" y="534"/>
      <point x="204" y="511"/>
      <point x="212" y="491" type="curve" smooth="yes"/>
      <point x="262" y="371" type="line"/>
      <point x="264" y="399"/>
      <point x="266" y="425"/>
      <point x="267" y="438" type="curve"/>
      <point x="407" y="401" type="line"/>
      <point x="394" y="334"/>
      <point x="369" y="254"/>
      <point x="347" y="192" type="curve"/>
    </contour>
    <contour>
      <point x="195" y="161" type="curve"/>
      <point x="161" y="248" type="line"/>
      <point x="156" y="225"/>
      <point x="153" y="202"/>
      <point x="153" y="178" type="curve" smooth="yes"/>
      <point x="153" y="148"/>
      <point x="160" y="135"/>
      <point x="172" y="135" type="curve" smooth="yes"/>
      <point x="181" y="135"/>
      <point x="187" y="137"/>
    </contour>
  </outline>
</glyph>
<glyph name="quotesingle" format="1">
  <advance width="239"/>
  <unicode hex="0027"/>
  <outline>
    <contour>
      <point x="225" y="700" type="line"/>
      <point x="192" y="373" type="line"/>
      <point x="47" y="373" type="line"/>
      <point x="14" y="700" type="line"/>
    </contour>
  </outline>
</glyph>
<glyph name="parenleft" format="1">
  <advance width="261"/>
  <unicode hex="0028"/>
  <outline>
    <contour>
      <point x="259" y="-60" type="curve"/>
      <point x="154" y="-110" type="line"/>
      <point x="63" y="8"/>
      <point x="10" y="132"/>
      <point x="10" y="308" type="curve" smooth="yes"/>
      <point x="10" y="484"/>
      <point x="63" y="608"/>
      <point x="154" y="726" type="curve"/>
      <point x="259" y="676" type="line"/>
      <point x="206" y="545"/>
      <point x="190" y="433"/>
      <point x="190" y="308" type="curve" smooth="yes"/>
      <point x="190" y="183"/>
      <point x="206" y="71"/>
    </contour>
  </outline>
</glyph>
<glyph name="parenright" format="1">
  <advance width="261"/>
  <unicode hex="0029"/>
  <outline>
    <contour>
      <point x="251" y="308" type="curve" smooth="yes"/>
      <point x="251" y="132"/>
      <point x="198" y="8"/>
      <point x="107" y="-110" type="curve"/>
      <point x="2" y="-60" type="line"/>
      <point x="55" y="71"/>
      <point x="71" y="183"/>
      <point x="71" y="308" type="curve" smooth="yes"/>
      <point x="71" y="433"/>
      <point x="55" y="545"/>
      <point x="2" y="676" type="curve"/>
      <point x="107" y="726" type="line"/>
      <point x="198" y="608"/>
      <point x="251" y="484"/>
    </contour>
  </outline>
</glyph>
<glyph name="asterisk" format="1">
  <advance width="376"/>
  <unicode hex="002A"/>
  <outline>
    <contour>
      <point x="372" y="499" type="line"/>
      <point x="303" y="383" type="line"/>
      <point x="219" y="476" type="line"/>
      <point x="256" y="356" type="line"/>
      <point x="120" y="356" type="line"/>
      <point x="157" y="476" type="line"/>
      <point x="73" y="383" type="line"/>
      <point x="4" y="499" type="line"/>
      <point x="127" y="528" type="line"/>
      <point x="4" y="557" type="line"/>
      <point x="73" y="673" type="line"/>
      <point x="157" y="580" type="line"/>
      <point x="120" y="700" type="line"/>
      <point x="256" y="700" type="line"/>
      <point x="219" y="580" type="line"/>
      <point x="303" y="673" type="line"/>
      <point x="372" y="557" type="line"/>
      <point x="249" y="528" type="line"/>
    </contour>
  </outline>
</glyph>
<glyph name="plus" format="1">
  <advance width="396"/>
  <unicode hex="002B"/>
  <outline>
    <contour>
      <point x="386" y="260" type="line"/>
      <point x="287" y="260" type="line"/>
      <point x="287" y="143" type="line"/>
      <point x="109" y="143" type="line"/>
      <point x="109" y="260" type="line"/>
      <point x="10" y="260" type="line"/>
      <point x="10" y="428" type="line"/>
      <point x="109" y="428" type="line"/>
      <point x="109" y="545" type="line"/>
      <point x="287" y="545" type="line"/>
      <point x="287" y="428" type="line"/>
      <point x="386" y="428" type="line"/>
    </contour>
  </outline>
</glyph>
<glyph name="comma" format="1">
  <advance width="220"/>
  <unicode hex="002C"/>
  <outline>
    <contour>
      <point x="213" y="185" type="line"/>
      <point x="122" y="-108" type="line"/>
      <point x="11" y="-108" type="line"/>
      <point x="26" y="185" type="line"/>
    </contour>
  </outline>
</glyph>
<glyph name="hyphen" format="1">
  <advance width="288"/>
  <unicode hex="002D"/>
  <unicode hex="2010"/>
  <unicode hex="2011"/>
  <outline>
    <contour>
      <point x="280" y="270" type="line"/>
      <point x="8" y="270" type="line"/>
      <point x="8" y="438" type="line"/>
      <point x="280" y="438" type="line"/>
    </contour>
  </outline>
</glyph>
<glyph name="period" format="1">
  <advance width="220"/>
  <unicode hex="002E"/>
  <outline>
    <contour>
      <point x="208" y="92" type="curve" smooth="yes"/>
      <point x="208" y="30"/>
      <point x="169" y="-11"/>
      <point x="110" y="-11" type="curve" smooth="yes"/>
      <point x="51" y="-11"/>
      <point x="12" y="30"/>
      <point x="12" y="92" type="curve" smooth="yes"/>
      <point x="12" y="154"/>
      <point x="51" y="195"/>
      <point x="110" y="195" type="curve" smooth="yes"/>
      <point x="169" y="195"/>
      <point x="208" y="154"/>
    </contour>
  </outline>
</glyph>
<glyph name="slash" format="1">
  <advance width="308"/>
  <unicode hex="002F"/>
  <outline>
    <contour>
      <point x="331" y="790" type="line"/>
      <point x="149" y="-90" type="line"/>
      <point x="-24" y="-90" type="line"/>
      <point x="158" y="790" type="line"/>
    </contour>
  </outline>
</glyph>
<glyph name="zero" format="1">
  <advance width="410"/>
  <unicode hex="0030"/>
  <outline>
    <contour>
      <point x="399" y="350" type="curve" smooth="yes"/>
      <point x="399" y="67"/>
      <point x="332" y="-11"/>
      <point x="205" y="-11" type="curve" smooth="yes"/>
      <point x="78" y="-11"/>
      <point x="11" y="67"/>
      <point x="11" y="350" type="curve" smooth="yes"/>
      <point x="11" y="633"/>
      <point x="78" y="711"/>
      <point x="205" y="711" type="curve" smooth="yes"/>
      <point x="332" y="711"/>
      <point x="399" y="633"/>
    </contour>
    <contour>
      <point x="220" y="350" type="curve" smooth="yes"/>
      <point x="220" y="547"/>
      <point x="216" y="556"/>
      <point x="205" y="556" type="curve" smooth="yes"/>
      <point x="194" y="556"/>
      <point x="190" y="547"/>
      <point x="190" y="350" type="curve" smooth="yes"/>
      <point x="190" y="153"/>
      <point x="194" y="144"/>
      <point x="205" y="144" type="curve" smooth="yes"/>
      <point x="216" y="144"/>
      <point x="220" y="153"/>
    </contour>
  </outline>
</glyph>
<glyph name="one" format="1">
  <advance width="258"/>
  <unicode hex="0031"/>
  <outline>
    <contour>
      <point x="240" y="0" type="line"/>
      <point x="68" y="0" type="line"/>
      <point x="68" y="521" type="line"/>
      <point x="2" y="521" type="line"/>
      <point x="2" y="617" type="line"/>
      <point x="65" y="625"/>
      <point x="93" y="651"/>
      <point x="106" y="700" type="curve"/>
      <point x="240" y="700" type="line"/>
    </contour>
  </outline>
</glyph>
<glyph name="two" format="1">
  <advance width="374"/>
  <unicode hex="0032"/>
  <outline>
    <contour>
      <point x="363" y="0" type="line"/>
      <point x="9" y="0" type="line"/>
      <point x="9" y="207"/>
      <point x="44" y="269"/>
      <point x="134" y="383" type="curve" smooth="yes"/>
      <point x="179" y="440"/>
      <point x="194" y="473"/>
      <point x="194" y="513" type="curve" smooth="yes"/>
      <point x="194" y="549"/>
      <point x="191" y="560"/>
      <point x="182" y="560" type="curve" smooth="yes"/>
      <point x="172" y="560"/>
      <point x="169" y="547"/>
      <point x="166" y="473" type="curve"/>
      <point x="11" y="496" type="line"/>
      <point x="23" y="639"/>
      <point x="68" y="711"/>
      <point x="192" y="711" type="curve" smooth="yes"/>
      <point x="310" y="711"/>
      <point x="362" y="644"/>
      <point x="362" y="526" type="curve" smooth="yes"/>
      <point x="362" y="440"/>
      <point x="335" y="385"/>
      <point x="270" y="302" type="curve" smooth="yes"/>
      <point x="199" y="211"/>
      <point x="192" y="192"/>
      <point x="184" y="149" type="curve"/>
      <point x="363" y="149" type="line"/>
    </contour>
  </outline>
</glyph>
<glyph name="three" format="1">
  <advance width="375"/>
  <unicode hex="0033"/>
  <outline>
    <contour>
      <point x="366" y="205" type="curve" smooth="yes"/>
      <point x="366" y="67"/>
      <point x="305" y="-11"/>
      <point x="182" y="-11" type="curve" smooth="yes"/>
      <point x="61" y="-11"/>
      <point x="13" y="55"/>
      <point x="6" y="206" type="curve"/>
      <point x="163" y="226" type="line"/>
      <point x="165" y="148"/>
      <point x="171" y="135"/>
      <point x="182" y="135" type="curve" smooth="yes"/>
      <point x="193" y="135"/>
      <point x="196" y="148"/>
      <point x="196" y="213" type="curve" smooth="yes"/>
      <point x="196" y="284"/>
      <point x="178" y="293"/>
      <point x="126" y="293" type="curve" smooth="yes"/>
      <point x="97" y="293" type="line"/>
      <point x="97" y="437" type="line"/>
      <point x="129" y="437" type="line" smooth="yes"/>
      <point x="177" y="437"/>
      <point x="190" y="456"/>
      <point x="190" y="525" type="curve" smooth="yes"/>
      <point x="190" y="559"/>
      <point x="188" y="565"/>
      <point x="179" y="565" type="curve" smooth="yes"/>
      <point x="169" y="565"/>
      <point x="168" y="553"/>
      <point x="162" y="480" type="curve"/>
      <point x="7" y="502" type="line"/>
      <point x="17" y="633"/>
      <point x="68" y="711"/>
      <point x="186" y="711" type="curve" smooth="yes"/>
      <point x="311" y="711"/>
      <point x="360" y="639"/>
      <point x="360" y="532" type="curve" smooth="yes"/>
      <point x="360" y="448"/>
      <point x="329" y="402"/>
      <point x="280" y="372" type="curve"/>
      <point x="331" y="345"/>
      <point x="366" y="308"/>
    </contour>
  </outline>
</glyph>
<glyph name="four" format="1">
  <advance width="387"/>
  <unicode hex="0034"/>
  <outline>
    <contour>
      <point x="383" y="134" type="line"/>
      <point x="349" y="134" type="line"/>
      <point x="349" y="0" type="line"/>
      <point x="193" y="0" type="line"/>
      <point x="193" y="136" type="line"/>
      <point x="3" y="136" type="line"/>
      <point x="3" y="255" type="line"/>
      <point x="162" y="700" type="line"/>
      <point x="349" y="700" type="line"/>
      <point x="349" y="277" type="line"/>
      <point x="383" y="277" type="line"/>
    </contour>
    <contour>
      <point x="201" y="479" type="curve"/>
      <point x="194" y="442"/>
      <point x="186" y="410"/>
      <point x="176" y="375" type="curve" smooth="yes"/>
      <point x="167" y="344" type="line" smooth="yes"/>
      <point x="158" y="312"/>
      <point x="151" y="289"/>
      <point x="144" y="271" type="curve"/>
      <point x="155" y="272"/>
      <point x="166" y="272"/>
      <point x="179" y="272" type="curve" smooth="yes"/>
      <point x="198" y="272" type="line"/>
      <point x="198" y="368" type="line" smooth="yes"/>
      <point x="198" y="402"/>
      <point x="199" y="442"/>
    </contour>
  </outline>
</glyph>
<glyph name="five" format="1">
  <advance width="385"/>
  <unicode hex="0035"/>
  <outline>
    <contour>
      <point x="371" y="243" type="curve" smooth="yes"/>
      <point x="371" y="63"/>
      <point x="312" y="-11"/>
      <point x="186" y="-11" type="curve" smooth="yes"/>
      <point x="76" y="-11"/>
      <point x="18" y="42"/>
      <point x="10" y="206" type="curve"/>
      <point x="167" y="226" type="line"/>
      <point x="169" y="148"/>
      <point x="173" y="135"/>
      <point x="184" y="135" type="curve" smooth="yes"/>
      <point x="195" y="135"/>
      <point x="200" y="144"/>
      <point x="200" y="241" type="curve" smooth="yes"/>
      <point x="200" y="330"/>
      <point x="196" y="348"/>
      <point x="183" y="348" type="curve" smooth="yes"/>
      <point x="172" y="348"/>
      <point x="166" y="332"/>
      <point x="161" y="295" type="curve"/>
      <point x="15" y="316" type="line"/>
      <point x="29" y="700" type="line"/>
      <point x="356" y="700" type="line"/>
      <point x="356" y="551" type="line"/>
      <point x="180" y="551" type="line"/>
      <point x="175" y="468" type="line"/>
      <point x="195" y="484"/>
      <point x="213" y="494"/>
      <point x="246" y="494" type="curve" smooth="yes"/>
      <point x="336" y="494"/>
      <point x="371" y="421"/>
    </contour>
  </outline>
</glyph>
<glyph name="six" format="1">
  <advance width="402"/>
  <unicode hex="0036"/>
  <outline>
    <contour>
      <point x="393" y="230" type="curve" smooth="yes"/>
      <point x="393" y="66"/>
      <point x="319" y="-11"/>
      <point x="199" y="-11" type="curve" smooth="yes"/>
      <point x="78" y="-11"/>
      <point x="10" y="66"/>
      <point x="10" y="234" type="curve" smooth="yes"/>
      <point x="10" y="489"/>
      <point x="104" y="614"/>
      <point x="226" y="716" type="curve"/>
      <point x="331" y="596" type="line"/>
      <point x="258" y="542"/>
      <point x="214" y="495"/>
      <point x="185" y="428" type="curve"/>
      <point x="205" y="445"/>
      <point x="226" y="450"/>
      <point x="254" y="450" type="curve" smooth="yes"/>
      <point x="332" y="450"/>
      <point x="393" y="381"/>
    </contour>
    <contour>
      <point x="216" y="215" type="curve" smooth="yes"/>
      <point x="216" y="292"/>
      <point x="212" y="311"/>
      <point x="200" y="311" type="curve" smooth="yes"/>
      <point x="188" y="311"/>
      <point x="185" y="293"/>
      <point x="185" y="214" type="curve" smooth="yes"/>
      <point x="185" y="144"/>
      <point x="190" y="128"/>
      <point x="200" y="128" type="curve" smooth="yes"/>
      <point x="211" y="128"/>
      <point x="216" y="143"/>
    </contour>
  </outline>
</glyph>
<glyph name="seven" format="1">
  <advance width="381"/>
  <unicode hex="0037"/>
  <outline>
    <contour>
      <point x="377" y="554" type="line"/>
      <point x="260" y="372"/>
      <point x="249" y="247"/>
      <point x="249" y="0" type="curve"/>
      <point x="69" y="0" type="line"/>
      <point x="69" y="181"/>
      <point x="82" y="370"/>
      <point x="199" y="551" type="curve"/>
      <point x="6" y="551" type="line"/>
      <point x="6" y="700" type="line"/>
      <point x="377" y="700" type="line"/>
    </contour>
  </outline>
</glyph>
<glyph name="eight" format="1">
  <advance width="390"/>
  <unicode hex="0038"/>
  <outline>
    <contour>
      <point x="381" y="209" type="curve" smooth="yes"/>
      <point x="381" y="61"/>
      <point x="312" y="-11"/>
      <point x="193" y="-11" type="curve" smooth="yes"/>
      <point x="81" y="-11"/>
      <point x="9" y="64"/>
      <point x="9" y="208" type="curve" smooth="yes"/>
      <point x="9" y="302"/>
      <point x="35" y="350"/>
      <point x="74" y="383" type="curve"/>
      <point x="41" y="410"/>
      <point x="15" y="458"/>
      <point x="15" y="529" type="curve" smooth="yes"/>
      <point x="15" y="635"/>
      <point x="80" y="711"/>
      <point x="195" y="711" type="curve" smooth="yes"/>
      <point x="320" y="711"/>
      <point x="375" y="631"/>
      <point x="375" y="530" type="curve" smooth="yes"/>
      <point x="375" y="459"/>
      <point x="350" y="414"/>
      <point x="316" y="385" type="curve"/>
      <point x="356" y="353"/>
      <point x="381" y="302"/>
    </contour>
    <contour>
      <point x="211" y="517" type="curve" smooth="yes"/>
      <point x="211" y="559"/>
      <point x="206" y="579"/>
      <point x="195" y="579" type="curve" smooth="yes"/>
      <point x="184" y="579"/>
      <point x="179" y="559"/>
      <point x="179" y="517" type="curve" smooth="yes"/>
      <point x="179" y="475"/>
      <point x="184" y="455"/>
      <point x="195" y="455" type="curve" smooth="yes"/>
      <point x="206" y="455"/>
      <point x="211" y="475"/>
    </contour>
    <contour>
      <point x="212" y="218" type="curve" smooth="yes"/>
      <point x="212" y="286"/>
      <point x="207" y="310"/>
      <point x="195" y="310" type="curve" smooth="yes"/>
      <point x="183" y="310"/>
      <point x="178" y="286"/>
      <point x="178" y="218" type="curve" smooth="yes"/>
      <point x="178" y="150"/>
      <point x="183" y="126"/>
      <point x="195" y="126" type="curve" smooth="yes"/>
      <point x="207" y="126"/>
      <point x="212" y="150"/>
    </contour>
  </outline>
</glyph>
<glyph name="nine" format="1">
  <advance width="402"/>
  <unicode hex="0039"/>
  <outline>
    <contour>
      <point x="392" y="466" type="curve" smooth="yes"/>
      <point x="392" y="211"/>
      <point x="298" y="86"/>
      <point x="176" y="-16" type="curve"/>
      <point x="71" y="104" type="line"/>
      <point x="144" y="158"/>
      <point x="188" y="205"/>
      <point x="217" y="272" type="curve"/>
      <point x="197" y="255"/>
      <point x="176" y="250"/>
      <point x="148" y="250" type="curve" smooth="yes"/>
      <point x="70" y="250"/>
      <point x="9" y="319"/>
      <point x="9" y="470" type="curve" smooth="yes"/>
      <point x="9" y="634"/>
      <point x="83" y="711"/>
      <point x="203" y="711" type="curve" smooth="yes"/>
      <point x="324" y="711"/>
      <point x="392" y="634"/>
    </contour>
    <contour>
      <point x="217" y="486" type="curve" smooth="yes"/>
      <point x="217" y="556"/>
      <point x="212" y="572"/>
      <point x="202" y="572" type="curve" smooth="yes"/>
      <point x="191" y="572"/>
      <point x="186" y="557"/>
      <point x="186" y="485" type="curve" smooth="yes"/>
      <point x="186" y="408"/>
      <point x="190" y="389"/>
      <point x="202" y="389" type="curve" smooth="yes"/>
      <point x="214" y="389"/>
      <point x="217" y="407"/>
    </contour>
  </outline>
</glyph>
<glyph name="colon" format="1">
  <advance width="220"/>
  <unicode hex="003A"/>
  <outline>
    <contour>
      <point x="208" y="433" type="curve" smooth="yes"/>
      <point x="208" y="371"/>
      <point x="169" y="330"/>
      <point x="110" y="330" type="curve" smooth="yes"/>
      <point x="51" y="330"/>
      <point x="12" y="371"/>
      <point x="12" y="433" type="curve" smooth="yes"/>
      <point x="12" y="495"/>
      <point x="51" y="536"/>
      <point x="110" y="536" type="curve" smooth="yes"/>
      <point x="169" y="536"/>
      <point x="208" y="495"/>
    </contour>
    <contour>
      <point x="208" y="92" type="curve" smooth="yes"/>
      <point x="208" y="30"/>
      <point x="169" y="-11"/>
      <point x="110" y="-11" type="curve" smooth="yes"/>
      <point x="51" y="-11"/>
      <point x="12" y="30"/>
      <point x="12" y="92" type="curve" smooth="yes"/>
      <point x="12" y="154"/>
      <point x="51" y="195"/>
      <point x="110" y="195" type="curve" smooth="yes"/>
      <point x="169" y="195"/>
      <point x="208" y="154"/>
    </contour>
  </outline>
</glyph>
<glyph name="semicolon" format="1">
  <advance width="220"/>
  <unicode hex="003B"/>
  <outline>
    <contour>
      <point x="208" y="433" type="curve" smooth="yes"/>
      <point x="208" y="371"/>
      <point x="169" y="330"/>
      <point x="110" y="330" type="curve" smooth="yes"/>
      <point x="51" y="330"/>
      <point x="12" y="371"/>
      <point x="12" y="433" type="curve" smooth="yes"/>
      <point x="12" y="495"/>
      <point x="51" y="536"/>
      <point x="110" y="536" type="curve" smooth="yes"/>
      <point x="169" y="536"/>
      <point x="208" y="495"/>
    </contour>
    <contour>
      <point x="209" y="185" type="line"/>
      <point x="118" y="-108" type="line"/>
      <point x="7" y="-108" type="line"/>
      <point x="22" y="185" type="line"/>
    </contour>
  </outline>
</glyph>
<glyph name="less" format="1">
  <advance width="325"/>
  <unicode hex="003C"/>
  <outline>
    <contour>
      <point x="307" y="23" type="line"/>
      <point x="12" y="268" type="line"/>
      <point x="12" y="434" type="line"/>
      <point x="307" y="679" type="line"/>
      <point x="307" y="433" type="line"/>
      <point x="184" y="352" type="line"/>
      <point x="307" y="273" type="line"/>
    </contour>
  </outline>
</glyph>
<glyph name="equal" format="1">
  <advance width="402"/>
  <unicode hex="003D"/>
  <outline>
    <contour>
      <point x="381" y="372" type="line"/>
      <point x="21" y="372" type="line"/>
      <point x="21" y="560" type="line"/>
      <point x="381" y="560" type="line"/>
    </contour>
    <contour>
      <point x="381" y="128" type="line"/>
      <point x="21" y="128" type="line"/>
      <point x="21" y="316" type="line"/>
      <point x="381" y="316" type="line"/>
    </contour>
  </outline>
</glyph>
<glyph name="greater" format="1">
  <advance width="325"/>
  <unicode hex="003E"/>
  <outline>
    <contour>
      <point x="313" y="268" type="line"/>
      <point x="18" y="23" type="line"/>
      <point x="18" y="269" type="line"/>
      <point x="141" y="348" type="line"/>
      <point x="18" y="429" type="line"/>
      <point x="18" y="679" type="line"/>
      <point x="313" y="434" type="line"/>
    </contour>
  </outline>
</glyph>
<glyph name="question" format="1">
  <advance width="354"/>
  <unicode hex="003F"/>
  <outline>
    <contour>
      <point x="350" y="545" type="curve" smooth="yes"/>
      <point x="350" y="472"/>
      <point x="330" y="437"/>
      <point x="286" y="368" type="curve" smooth="yes"/>
      <point x="245" y="304"/>
      <point x="238" y="275"/>
      <point x="238" y="214" type="curve"/>
      <point x="91" y="214" type="line"/>
      <point x="91" y="318"/>
      <point x="100" y="359"/>
      <point x="140" y="425" type="curve" smooth="yes"/>
      <point x="172" y="477"/>
      <point x="184" y="506"/>
      <point x="184" y="532" type="curve" smooth="yes"/>
      <point x="184" y="547"/>
      <point x="182" y="556"/>
      <point x="172" y="556" type="curve" smooth="yes"/>
      <point x="163" y="556"/>
      <point x="156" y="542"/>
      <point x="154" y="479" type="curve"/>
      <point x="2" y="504" type="line"/>
      <point x="8" y="647"/>
      <point x="71" y="711"/>
      <point x="179" y="711" type="curve" smooth="yes"/>
      <point x="294" y="711"/>
      <point x="350" y="645"/>
    </contour>
    <contour>
      <point x="259" y="88" type="curve" smooth="yes"/>
      <point x="259" y="28"/>
      <point x="222" y="-11"/>
      <point x="165" y="-11" type="curve" smooth="yes"/>
      <point x="108" y="-11"/>
      <point x="71" y="28"/>
      <point x="71" y="88" type="curve" smooth="yes"/>
      <point x="71" y="148"/>
      <point x="108" y="187"/>
      <point x="165" y="187" type="curve" smooth="yes"/>
      <point x="222" y="187"/>
      <point x="259" y="148"/>
    </contour>
  </outline>
</glyph>
<glyph name="at" format="1">
  <advance width="468"/>
  <unicode hex="0040"/>
  <outline>
    <contour>
      <point x="263" y="208" type="curve"/>
      <point x="252" y="183"/>
      <point x="227" y="153"/>
      <point x="186" y="153" type="curve" smooth="yes"/>
      <point x="139" y="153"/>
      <point x="113" y="189"/>
      <point x="113" y="279" type="curve" smooth="yes"/>
      <point x="113" y="373"/>
      <point x="138" y="412"/>
      <point x="196" y="412" type="curve" smooth="yes"/>
      <point x="217" y="412"/>
      <point x="229" y="403"/>
      <point x="235" y="396" type="curve"/>
      <point x="235" y="419" type="line" smooth="yes"/>
      <point x="235" y="440"/>
      <point x="234" y="449"/>
      <point x="217" y="449" type="curve" smooth="yes"/>
      <point x="199" y="449"/>
      <point x="181" y="441"/>
      <point x="159" y="426" type="curve"/>
      <point x="124" y="513" type="line"/>
      <point x="154" y="535"/>
      <point x="199" y="552"/>
      <point x="256" y="552" type="curve" smooth="yes"/>
      <point x="321" y="552"/>
      <point x="347" y="523"/>
      <point x="347" y="446" type="curve" smooth="yes"/>
      <point x="347" y="446"/>
      <point x="347" y="377"/>
      <point x="347" y="349" type="curve" smooth="yes"/>
      <point x="347" y="221"/>
      <point x="352" y="214"/>
      <point x="367" y="214" type="curve" smooth="yes"/>
      <point x="382" y="214"/>
      <point x="387" y="228"/>
      <point x="387" y="350" type="curve" smooth="yes"/>
      <point x="387" y="551"/>
      <point x="352" y="653"/>
      <point x="233" y="653" type="curve" smooth="yes"/>
      <point x="114" y="653"/>
      <point x="81" y="551"/>
      <point x="81" y="350" type="curve" smooth="yes"/>
      <point x="81" y="149"/>
      <point x="114" y="47"/>
      <point x="233" y="47" type="curve" smooth="yes"/>
      <point x="271" y="47"/>
      <point x="298" y="59"/>
      <point x="317" y="73" type="curve"/>
      <point x="347" y="24" type="line"/>
      <point x="325" y="7"/>
      <point x="292" y="-11"/>
      <point x="233" y="-11" type="curve" smooth="yes"/>
      <point x="60" y="-11"/>
      <point x="14" y="124"/>
      <point x="14" y="350" type="curve" smooth="yes"/>
      <point x="14" y="576"/>
      <point x="60" y="711"/>
      <point x="233" y="711" type="curve" smooth="yes"/>
      <point x="406" y="711"/>
      <point x="454" y="576"/>
      <point x="454" y="350" type="curve" smooth="yes"/>
      <point x="454" y="180"/>
      <point x="427" y="153"/>
      <point x="340" y="153" type="curve" smooth="yes"/>
      <point x="294" y="153"/>
      <point x="270" y="182"/>
    </contour>
    <contour>
      <point x="235" y="249" type="curve"/>
      <point x="235" y="330" type="line"/>
      <point x="234" y="330"/>
      <point x="232" y="332"/>
      <point x="230" y="332" type="curve" smooth="yes"/>
      <point x="219" y="332"/>
      <point x="216" y="327"/>
      <point x="216" y="287" type="curve" smooth="yes"/>
      <point x="216" y="253"/>
      <point x="219" y="247"/>
      <point x="230" y="247" type="curve" smooth="yes"/>
      <point x="232" y="247"/>
      <point x="234" y="249"/>
    </contour>
  </outline>
</glyph>
<glyph name="A" format="1">
  <advance width="436"/>
  <unicode hex="0041"/>
  <outline>
    <contour>
      <point x="438" y="0" type="line"/>
      <point x="261" y="0" type="line"/>
      <point x="250" y="106" type="line"/>
      <point x="180" y="106" type="line"/>
      <point x="169" y="0" type="line"/>
      <point x="-2" y="0" type="line"/>
      <point x="101" y="700" type="line"/>
      <point x="335" y="700" type="line"/>
    </contour>
    <contour>
      <point x="235" y="246" type="line"/>
      <point x="232" y="282" type="line" smooth="yes"/>
      <point x="226" y="351"/>
      <point x="222" y="392"/>
      <point x="215" y="527" type="curve"/>
      <point x="208" y="392"/>
      <point x="204" y="351"/>
      <point x="198" y="282" type="curve" smooth="yes"/>
      <point x="195" y="246" type="line"/>
    </contour>
  </outline>
</glyph>
<glyph name="B" format="1">
  <advance width="404"/>
  <unicode hex="0042"/>
  <outline>
    <contour>
      <point x="399" y="203" type="curve" smooth="yes"/>
      <point x="399" y="71"/>
      <point x="340" y="0"/>
      <point x="209" y="0" type="curve" smooth="yes"/>
      <point x="16" y="0" type="line"/>
      <point x="16" y="700" type="line"/>
      <point x="202" y="700" type="line" smooth="yes"/>
      <point x="334" y="700"/>
      <point x="394" y="638"/>
      <point x="394" y="515" type="curve" smooth="yes"/>
      <point x="394" y="437"/>
      <point x="362" y="392"/>
      <point x="321" y="364" type="curve"/>
      <point x="366" y="334"/>
      <point x="399" y="291"/>
    </contour>
    <contour>
      <point x="221" y="499" type="curve" smooth="yes"/>
      <point x="221" y="556"/>
      <point x="215" y="569"/>
      <point x="195" y="569" type="curve" smooth="yes"/>
      <point x="191" y="569" type="line"/>
      <point x="191" y="425" type="line"/>
      <point x="197" y="425" type="line" smooth="yes"/>
      <point x="214" y="425"/>
      <point x="221" y="442"/>
    </contour>
    <contour>
      <point x="222" y="212" type="curve" smooth="yes"/>
      <point x="222" y="278"/>
      <point x="217" y="299"/>
      <point x="195" y="299" type="curve" smooth="yes"/>
      <point x="191" y="299" type="line"/>
      <point x="191" y="133" type="line"/>
      <point x="197" y="133" type="line" smooth="yes"/>
      <point x="217" y="133"/>
      <point x="222" y="150"/>
    </contour>
  </outline>
</glyph>
<glyph name="C" format="1">
  <advance width="400"/>
  <unicode hex="0043"/>
  <outline>
    <contour>
      <point x="395" y="241" type="line"/>
      <point x="379" y="81"/>
      <point x="334" y="-11"/>
      <point x="209" y="-11" type="curve" smooth="yes"/>
      <point x="79" y="-11"/>
      <point x="11" y="64"/>
      <point x="11" y="350" type="curve" smooth="yes"/>
      <point x="11" y="636"/>
      <point x="79" y="711"/>
      <point x="209" y="711" type="curve" smooth="yes"/>
      <point x="338" y="711"/>
      <point x="383" y="615"/>
      <point x="393" y="456" type="curve"/>
      <point x="224" y="433" type="line"/>
      <point x="222" y="542"/>
      <point x="220" y="556"/>
      <point x="209" y="556" type="curve" smooth="yes"/>
      <point x="198" y="556"/>
      <point x="194" y="547"/>
      <point x="194" y="350" type="curve" smooth="yes"/>
      <point x="194" y="153"/>
      <point x="198" y="144"/>
      <point x="209" y="144" type="curve" smooth="yes"/>
      <point x="219" y="144"/>
      <point x="221" y="150"/>
      <point x="227" y="268" type="curve"/>
    </contour>
  </outline>
</glyph>
<glyph name="D" format="1">
  <advance width="420"/>
  <unicode hex="0044"/>
  <outline>
    <contour>
      <point x="410" y="350" type="curve" smooth="yes"/>
      <point x="410" y="108"/>
      <point x="358" y="0"/>
      <point x="206" y="0" type="curve" smooth="yes"/>
      <point x="16" y="0" type="line"/>
      <point x="16" y="700" type="line"/>
      <point x="206" y="700" type="line" smooth="yes"/>
      <point x="358" y="700"/>
      <point x="410" y="592"/>
    </contour>
    <contour>
      <point x="227" y="350" type="curve" smooth="yes"/>
      <point x="227" y="534"/>
      <point x="222" y="544"/>
      <point x="205" y="544" type="curve" smooth="yes"/>
      <point x="196" y="544" type="line"/>
      <point x="196" y="156" type="line"/>
      <point x="205" y="156" type="line" smooth="yes"/>
      <point x="222" y="156"/>
      <point x="227" y="166"/>
    </contour>
  </outline>
</glyph>
<glyph name="E" format="1">
  <advance width="341"/>
  <unicode hex="0045"/>
  <outline>
    <contour>
      <point x="330" y="0" type="line"/>
      <point x="16" y="0" type="line"/>
      <point x="16" y="700" type="line"/>
      <point x="329" y="700" type="line"/>
      <point x="329" y="545" type="line"/>
      <point x="196" y="545" type="line"/>
      <point x="196" y="446" type="line"/>
      <point x="304" y="446" type="line"/>
      <point x="304" y="293" type="line"/>
      <point x="196" y="293" type="line"/>
      <point x="196" y="155" type="line"/>
      <point x="330" y="155" type="line"/>
    </contour>
  </outline>
</glyph>
<glyph name="F" format="1">
  <advance width="333"/>
  <unicode hex="0046"/>
  <outline>
    <contour>
      <point x="324" y="545" type="line"/>
      <point x="196" y="545" type="line"/>
      <point x="196" y="436" type="line"/>
      <point x="299" y="436" type="line"/>
      <point x="299" y="283" type="line"/>
      <point x="196" y="283" type="line"/>
      <point x="196" y="0" type="line"/>
      <point x="16" y="0" type="line"/>
      <point x="16" y="700" type="line"/>
      <point x="324" y="700" type="line"/>
    </contour>
  </outline>
</glyph>
<glyph name="G" format="1">
  <advance width="415"/>
  <unicode hex="0047"/>
  <outline>
    <contour>
      <point x="406" y="244" type="line" smooth="yes"/>
      <point x="406" y="83"/>
      <point x="354" y="-11"/>
      <point x="221" y="-11" type="curve" smooth="yes"/>
      <point x="81" y="-11"/>
      <point x="11" y="64"/>
      <point x="11" y="350" type="curve" smooth="yes"/>
      <point x="11" y="636"/>
      <point x="79" y="711"/>
      <point x="213" y="711" type="curve" smooth="yes"/>
      <point x="344" y="711"/>
      <point x="392" y="615"/>
      <point x="401" y="467" type="curve"/>
      <point x="226" y="443" type="line"/>
      <point x="224" y="542"/>
      <point x="222" y="556"/>
      <point x="210" y="556" type="curve" smooth="yes"/>
      <point x="198" y="556"/>
      <point x="194" y="547"/>
      <point x="194" y="350" type="curve" smooth="yes"/>
      <point x="194" y="149"/>
      <point x="200" y="135"/>
      <point x="215" y="135" type="curve" smooth="yes"/>
      <point x="226" y="135"/>
      <point x="233" y="148"/>
      <point x="233" y="219" type="curve" smooth="yes"/>
      <point x="233" y="248" type="line"/>
      <point x="211" y="248" type="line"/>
      <point x="211" y="375" type="line"/>
      <point x="406" y="375" type="line"/>
    </contour>
  </outline>
</glyph>
<glyph name="H" format="1">
  <advance width="422"/>
  <unicode hex="0048"/>
  <outline>
    <contour>
      <point x="406" y="0" type="line"/>
      <point x="226" y="0" type="line"/>
      <point x="226" y="291" type="line"/>
      <point x="196" y="291" type="line"/>
      <point x="196" y="0" type="line"/>
      <point x="16" y="0" type="line"/>
      <point x="16" y="700" type="line"/>
      <point x="196" y="700" type="line"/>
      <point x="196" y="451" type="line"/>
      <point x="226" y="451" type="line"/>
      <point x="226" y="700" type="line"/>
      <point x="406" y="700" type="line"/>
    </contour>
  </outline>
</glyph>
<glyph name="J" format="1">
  <advance width="394"/>
  <unicode hex="004A"/>
  <outline>
    <contour>
      <point x="380" y="199" type="line" smooth="yes"/>
      <point x="380" y="58"/>
      <point x="318" y="-11"/>
      <point x="193" y="-11" type="curve" smooth="yes"/>
      <point x="54" y="-11"/>
      <point x="7" y="75"/>
      <point x="7" y="225" type="curve"/>
      <point x="171" y="259" type="line"/>
      <point x="171" y="157"/>
      <point x="176" y="144"/>
      <point x="187" y="144" type="curve" smooth="yes"/>
      <point x="196" y="144"/>
      <point x="200" y="152"/>
      <point x="200" y="188" type="curve" smooth="yes"/>
      <point x="200" y="700" type="line"/>
      <point x="380" y="700" type="line"/>
    </contour>
  </outline>
</glyph>
<glyph name="K" format="1">
  <advance width="420"/>
  <unicode hex="004B"/>
  <outline>
    <contour>
      <point x="423" y="0" type="line"/>
      <point x="241" y="0" type="line"/>
      <point x="201" y="259" type="line"/>
      <point x="196" y="235" type="line"/>
      <point x="196" y="0" type="line"/>
      <point x="16" y="0" type="line"/>
      <point x="16" y="700" type="line"/>
      <point x="196" y="700" type="line"/>
      <point x="196" y="623" type="line" smooth="yes"/>
      <point x="196" y="558"/>
      <point x="195" y="501"/>
      <point x="194" y="449" type="curve"/>
      <point x="203" y="504"/>
      <point x="213" y="561"/>
      <point x="226" y="626" type="curve" smooth="yes"/>
      <point x="241" y="700" type="line"/>
      <point x="421" y="700" type="line"/>
      <point x="342" y="415" type="line"/>
    </contour>
  </outline>
</glyph>
<glyph name="L" format="1">
  <advance width="313"/>
  <unicode hex="004C"/>
  <outline>
    <contour>
      <point x="305" y="0" type="line"/>
      <point x="16" y="0" type="line"/>
      <point x="16" y="700" type="line"/>
      <point x="196" y="700" type="line"/>
      <point x="196" y="155" type="line"/>
      <point x="305" y="155" type="line"/>
    </contour>
  </outline>
</glyph>
<glyph name="M" format="1">
  <advance width="506"/>
  <unicode hex="004D"/>
  <outline>
    <contour>
      <point x="490" y="0" type="line"/>
      <point x="325" y="0" type="line"/>
      <point x="325" y="130" type="line" smooth="yes"/>
      <point x="325" y="203"/>
      <point x="326" y="274"/>
      <point x="328" y="334" type="curve"/>
      <point x="318" y="267"/>
      <point x="300" y="190"/>
      <point x="283" y="115" type="curve" smooth="yes"/>
      <point x="254" y="-12" type="line"/>
      <point x="246" y="-12" type="line"/>
      <point x="217" y="115" type="line" smooth="yes"/>
      <point x="200" y="190"/>
      <point x="183" y="262"/>
      <point x="172" y="334" type="curve"/>
      <point x="174" y="277"/>
      <point x="175" y="202"/>
      <point x="175" y="130" type="curve" smooth="yes"/>
      <point x="175" y="0" type="line"/>
      <point x="16" y="0" type="line"/>
      <point x="16" y="700" type="line"/>
      <point x="193" y="700" type="line"/>
      <point x="220" y="581" type="line" smooth="yes"/>
      <point x="234" y="521"/>
      <point x="248" y="455"/>
      <point x="253" y="411" type="curve"/>
      <point x="259" y="455"/>
      <point x="273" y="522"/>
      <point x="286" y="581" type="curve" smooth="yes"/>
      <point x="313" y="700" type="line"/>
      <point x="490" y="700" type="line"/>
    </contour>
  </outline>
</glyph>
<glyph name="N" format="1">
  <advance width="422"/>
  <unicode hex="004E"/>
  <outline>
    <contour>
      <point x="406" y="0" type="line"/>
      <point x="263" y="0" type="line"/>
      <point x="223" y="129" type="line" smooth="yes"/>
      <point x="203" y="194"/>
      <point x="183" y="267"/>
      <point x="175" y="305" type="curve"/>
      <point x="177" y="267"/>
      <point x="178" y="198"/>
      <point x="178" y="138" type="curve" smooth="yes"/>
      <point x="178" y="0" type="line"/>
      <point x="16" y="0" type="line"/>
      <point x="16" y="700" type="line"/>
      <point x="168" y="700" type="line"/>
      <point x="195" y="614" type="line" smooth="yes"/>
      <point x="216" y="548"/>
      <point x="240" y="464"/>
      <point x="249" y="423" type="curve"/>
      <point x="246" y="462"/>
      <point x="244" y="547"/>
      <point x="244" y="606" type="curve" smooth="yes"/>
      <point x="244" y="700" type="line"/>
      <point x="406" y="700" type="line"/>
    </contour>
  </outline>
</glyph>
<glyph name="O" format="1">
  <advance width="418"/>
  <unicode hex="004F"/>
  <outline>
    <contour>
      <point x="407" y="350" type="curve" smooth="yes"/>
      <point x="407" y="64"/>
      <point x="339" y="-11"/>
      <point x="209" y="-11" type="curve" smooth="yes"/>
      <point x="79" y="-11"/>
      <point x="11" y="64"/>
      <point x="11" y="350" type="curve" smooth="yes"/>
      <point x="11" y="636"/>
      <point x="79" y="711"/>
      <point x="209" y="711" type="curve" smooth="yes"/>
      <point x="339" y="711"/>
      <point x="407" y="636"/>
    </contour>
    <contour>
      <point x="224" y="350" type="curve" smooth="yes"/>
      <point x="224" y="547"/>
      <point x="220" y="556"/>
      <point x="209" y="556" type="curve" smooth="yes"/>
      <point x="198" y="556"/>
      <point x="194" y="547"/>
      <point x="194" y="350" type="curve" smooth="yes"/>
      <point x="194" y="153"/>
      <point x="198" y="144"/>
      <point x="209" y="144" type="curve" smooth="yes"/>
      <point x="220" y="144"/>
      <point x="224" y="153"/>
    </contour>
  </outline>
</glyph>
<glyph name="P" format="1">
  <advance width="402"/>
  <unicode hex="0050"/>
  <outline>
    <contour>
      <point x="399" y="472" type="curve" smooth="yes"/>
      <point x="399" y="300"/>
      <point x="325" y="244"/>
      <point x="204" y="244" type="curve" smooth="yes"/>
      <point x="196" y="244" type="line"/>
      <point x="196" y="0" type="line"/>
      <point x="16" y="0" type="line"/>
      <point x="16" y="700" type="line"/>
      <point x="204" y="700" type="line" smooth="yes"/>
      <point x="325" y="700"/>
      <point x="399" y="644"/>
    </contour>
    <contour>
      <point x="222" y="468" type="curve" smooth="yes"/>
      <point x="222" y="545"/>
      <point x="216" y="556"/>
      <point x="194" y="556" type="curve" smooth="yes"/>
      <point x="191" y="556" type="line"/>
      <point x="191" y="380" type="line"/>
      <point x="194" y="380" type="line" smooth="yes"/>
      <point x="216" y="380"/>
      <point x="222" y="391"/>
    </contour>
  </outline>
</glyph>
<glyph name="Q" format="1">
  <advance width="418"/>
  <unicode hex="0051"/>
  <outline>
    <contour>
      <point x="415" y="48" type="line"/>
      <point x="298" y="-57" type="line"/>
      <point x="252" y="-4" type="line"/>
      <point x="239" y="-7"/>
      <point x="224" y="-8"/>
      <point x="209" y="-8" type="curve" smooth="yes"/>
      <point x="78" y="-8"/>
      <point x="11" y="64"/>
      <point x="11" y="350" type="curve" smooth="yes"/>
      <point x="11" y="636"/>
      <point x="79" y="711"/>
      <point x="209" y="711" type="curve" smooth="yes"/>
      <point x="339" y="711"/>
      <point x="407" y="636"/>
      <point x="407" y="350" type="curve" smooth="yes"/>
      <point x="407" y="234"/>
      <point x="393" y="153"/>
      <point x="369" y="97" type="curve"/>
    </contour>
    <contour>
      <point x="224" y="350" type="curve" smooth="yes"/>
      <point x="224" y="547"/>
      <point x="220" y="556"/>
      <point x="209" y="556" type="curve" smooth="yes"/>
      <point x="198" y="556"/>
      <point x="194" y="547"/>
      <point x="194" y="350" type="curve" smooth="yes"/>
      <point x="194" y="153"/>
      <point x="198" y="144"/>
      <point x="209" y="144" type="curve" smooth="yes"/>
      <point x="220" y="144"/>
      <point x="224" y="153"/>
    </contour>
  </outline>
</glyph>
<glyph name="R" format="1">
  <advance width="407"/>
  <unicode hex="0052"/>
  <outline>
    <contour>
      <point x="407" y="0" type="line"/>
      <point x="228" y="0" type="line"/>
      <point x="195" y="260" type="line"/>
      <point x="193" y="260" type="line"/>
      <point x="193" y="0" type="line"/>
      <point x="16" y="0" type="line"/>
      <point x="16" y="700" type="line"/>
      <point x="204" y="700" type="line" smooth="yes"/>
      <point x="325" y="700"/>
      <point x="399" y="640"/>
      <point x="399" y="493" type="curve" smooth="yes"/>
      <point x="399" y="428"/>
      <point x="380" y="377"/>
      <point x="353" y="341" type="curve"/>
    </contour>
    <contour>
      <point x="222" y="476" type="curve" smooth="yes"/>
      <point x="222" y="545"/>
      <point x="216" y="556"/>
      <point x="194" y="556" type="curve" smooth="yes"/>
      <point x="191" y="556" type="line"/>
      <point x="191" y="396" type="line"/>
      <point x="194" y="396" type="line" smooth="yes"/>
      <point x="216" y="396"/>
      <point x="222" y="407"/>
    </contour>
  </outline>
</glyph>
<glyph name="S" format="1">
  <advance width="400"/>
  <unicode hex="0053"/>
  <outline>
    <contour>
      <point x="388" y="185" type="curve" smooth="yes"/>
      <point x="388" y="60"/>
      <point x="319" y="-11"/>
      <point x="196" y="-11" type="curve" smooth="yes"/>
      <point x="77" y="-11"/>
      <point x="21" y="42"/>
      <point x="7" y="206" type="curve"/>
      <point x="164" y="237" type="line"/>
      <point x="172" y="153"/>
      <point x="182" y="133"/>
      <point x="197" y="133" type="curve" smooth="yes"/>
      <point x="211" y="133"/>
      <point x="217" y="143"/>
      <point x="217" y="168" type="curve" smooth="yes"/>
      <point x="217" y="214"/>
      <point x="199" y="246"/>
      <point x="138" y="295" type="curve" smooth="yes"/>
      <point x="51" y="365"/>
      <point x="12" y="424"/>
      <point x="12" y="518" type="curve" smooth="yes"/>
      <point x="12" y="643"/>
      <point x="76" y="711"/>
      <point x="199" y="711" type="curve" smooth="yes"/>
      <point x="316" y="711"/>
      <point x="371" y="646"/>
      <point x="383" y="511" type="curve"/>
      <point x="232" y="480" type="line"/>
      <point x="225" y="547"/>
      <point x="213" y="567"/>
      <point x="200" y="567" type="curve" smooth="yes"/>
      <point x="188" y="567"/>
      <point x="182" y="558"/>
      <point x="182" y="539" type="curve" smooth="yes"/>
      <point x="182" y="508"/>
      <point x="194" y="488"/>
      <point x="255" y="438" type="curve" smooth="yes"/>
      <point x="351" y="360"/>
      <point x="388" y="305"/>
    </contour>
  </outline>
</glyph>
<glyph name="T" format="1">
  <advance width="360"/>
  <unicode hex="0054"/>
  <outline>
    <contour>
      <point x="352" y="545" type="line"/>
      <point x="270" y="545" type="line"/>
      <point x="270" y="0" type="line"/>
      <point x="90" y="0" type="line"/>
      <point x="90" y="545" type="line"/>
      <point x="8" y="545" type="line"/>
      <point x="8" y="700" type="line"/>
      <point x="352" y="700" type="line"/>
    </contour>
  </outline>
</glyph>
<glyph name="U" format="1">
  <advance width="418"/>
  <unicode hex="0055"/>
  <outline>
    <contour>
      <point x="404" y="196" type="line" smooth="yes"/>
      <point x="404" y="56"/>
      <point x="343" y="-11"/>
      <point x="207" y="-11" type="curve" smooth="yes"/>
      <point x="72" y="-11"/>
      <point x="14" y="56"/>
      <point x="14" y="196" type="curve" smooth="yes"/>
      <point x="14" y="700" type="line"/>
      <point x="194" y="700" type="line"/>
      <point x="194" y="174" type="line" smooth="yes"/>
      <point x="194" y="153"/>
      <point x="199" y="144"/>
      <point x="209" y="144" type="curve" smooth="yes"/>
      <point x="219" y="144"/>
      <point x="224" y="153"/>
      <point x="224" y="174" type="curve" smooth="yes"/>
      <point x="224" y="700" type="line"/>
      <point x="404" y="700" type="line"/>
    </contour>
  </outline>
</glyph>
<glyph name="V" format="1">
  <advance width="430"/>
  <unicode hex="0056"/>
  <outline>
    <contour>
      <point x="432" y="700" type="line"/>
      <point x="329" y="0" type="line"/>
      <point x="101" y="0" type="line"/>
      <point x="-2" y="700" type="line"/>
      <point x="184" y="700" type="line"/>
      <point x="200" y="524" type="line" smooth="yes"/>
      <point x="209" y="421"/>
      <point x="213" y="337"/>
      <point x="218" y="212" type="curve"/>
      <point x="223" y="337"/>
      <point x="227" y="421"/>
      <point x="236" y="524" type="curve" smooth="yes"/>
      <point x="252" y="700" type="line"/>
    </contour>
  </outline>
</glyph>
<glyph name="W" format="1">
  <advance width="576"/>
  <unicode hex="0057"/>
  <outline>
    <contour>
      <point x="576" y="700" type="line"/>
      <point x="511" y="0" type="line"/>
      <point x="315" y="0" type="line"/>
      <point x="305" y="112" type="line" smooth="yes"/>
      <point x="297" y="204"/>
      <point x="291" y="297"/>
      <point x="288" y="361" type="curve"/>
      <point x="285" y="297"/>
      <point x="279" y="204"/>
      <point x="271" y="112" type="curve" smooth="yes"/>
      <point x="261" y="0" type="line"/>
      <point x="65" y="0" type="line"/>
      <point x="0" y="700" type="line"/>
      <point x="172" y="700" type="line"/>
      <point x="177" y="569" type="line" smooth="yes"/>
      <point x="180" y="498"/>
      <point x="183" y="397"/>
      <point x="183" y="310" type="curve"/>
      <point x="189" y="397"/>
      <point x="197" y="498"/>
      <point x="203" y="569" type="curve" smooth="yes"/>
      <point x="214" y="700" type="line"/>
      <point x="362" y="700" type="line"/>
      <point x="373" y="569" type="line" smooth="yes"/>
      <point x="379" y="498"/>
      <point x="387" y="397"/>
      <point x="393" y="310" type="curve"/>
      <point x="393" y="397"/>
      <point x="396" y="498"/>
      <point x="399" y="569" type="curve" smooth="yes"/>
      <point x="404" y="700" type="line"/>
    </contour>
  </outline>
</glyph>
<glyph name="X" format="1">
  <advance width="420"/>
  <unicode hex="0058"/>
  <outline>
    <contour>
      <point x="422" y="0" type="line"/>
      <point x="241" y="0" type="line"/>
      <point x="230" y="66" type="line" smooth="yes"/>
      <point x="220" y="126"/>
      <point x="212" y="177"/>
      <point x="207" y="221" type="curve"/>
      <point x="202" y="177"/>
      <point x="194" y="126"/>
      <point x="184" y="66" type="curve" smooth="yes"/>
      <point x="173" y="0" type="line"/>
      <point x="-2" y="0" type="line"/>
      <point x="93" y="359" type="line"/>
      <point x="3" y="700" type="line"/>
      <point x="183" y="700" type="line"/>
      <point x="192" y="652" type="line" smooth="yes"/>
      <point x="203" y="594"/>
      <point x="207" y="545"/>
      <point x="212" y="499" type="curve"/>
      <point x="217" y="545"/>
      <point x="221" y="595"/>
      <point x="232" y="652" type="curve" smooth="yes"/>
      <point x="241" y="700" type="line"/>
      <point x="417" y="700" type="line"/>
      <point x="326" y="363" type="line"/>
    </contour>
  </outline>
</glyph>
<glyph name="Y" format="1">
  <advance width="400"/>
  <unicode hex="0059"/>
  <outline>
    <contour>
      <point x="406" y="700" type="line"/>
      <point x="290" y="270" type="line"/>
      <point x="290" y="0" type="line"/>
      <point x="110" y="0" type="line"/>
      <point x="110" y="270" type="line"/>
      <point x="-6" y="700" type="line"/>
      <point x="173" y="700" type="line"/>
      <point x="182" y="625" type="line" smooth="yes"/>
      <point x="191" y="547"/>
      <point x="200" y="476"/>
      <point x="202" y="415" type="curve"/>
      <point x="204" y="476"/>
      <point x="213" y="547"/>
      <point x="222" y="625" type="curve" smooth="yes"/>
      <point x="231" y="700" type="line"/>
    </contour>
  </outline>
</glyph>
<glyph name="Z" format="1">
  <advance width="372"/>
  <unicode hex="005A"/>
  <outline>
    <contour>
      <point x="362" y="0" type="line"/>
      <point x="9" y="0" type="line"/>
      <point x="9" y="144" type="line"/>
      <point x="116" y="416" type="line" smooth="yes"/>
      <point x="136" y="466"/>
      <point x="160" y="521"/>
      <point x="174" y="550" type="curve"/>
      <point x="150" y="550"/>
      <point x="121" y="549"/>
      <point x="87" y="549" type="curve" smooth="yes"/>
      <point x="16" y="549" type="line"/>
      <point x="16" y="700" type="line"/>
      <point x="362" y="700" type="line"/>
      <point x="362" y="556" type="line"/>
      <point x="255" y="284" type="line" smooth="yes"/>
      <point x="235" y="234"/>
      <point x="211" y="179"/>
      <point x="197" y="150" type="curve"/>
      <point x="222" y="150"/>
      <point x="249" y="151"/>
      <point x="283" y="151" type="curve" smooth="yes"/>
      <point x="362" y="151" type="line"/>
    </contour>
  </outline>
</glyph>
<glyph name="bracketleft" format="1">
  <advance width="265"/>
  <unicode hex="005B"/>
  <outline>
    <contour>
      <point x="253" y="-92" type="line"/>
      <point x="17" y="-92" type="line"/>
      <point x="17" y="700" type="line"/>
      <point x="253" y="700" type="line"/>
      <point x="253" y="581" type="line"/>
      <point x="171" y="581" type="line"/>
      <point x="171" y="27" type="line"/>
      <point x="253" y="27" type="line"/>
    </contour>
  </outline>
</glyph>
<glyph name="backslash" format="1">
  <advance width="308"/>
  <unicode hex="005C"/>
  <outline>
    <contour>
      <point x="331" y="-90" type="line"/>
      <point x="158" y="-90" type="line"/>
      <point x="-24" y="790" type="line"/>
      <point x="149" y="790" type="line"/>
    </contour>
  </outline>
</glyph>
<glyph name="bracketright" format="1">
  <advance width="265"/>
  <unicode hex="005D"/>
  <outline>
    <contour>
      <point x="248" y="-92" type="line"/>
      <point x="12" y="-92" type="line"/>
      <point x="12" y="27" type="line"/>
      <point x="94" y="27" type="line"/>
      <point x="94" y="581" type="line"/>
      <point x="12" y="581" type="line"/>
      <point x="12" y="700" type="line"/>
      <point x="248" y="700" type="line"/>
    </contour>
  </outline>
</glyph>
<glyph name="asciicircum" format="1">
  <advance width="432"/>
  <unicode hex="005E"/>
  <outline>
    <contour>
      <point x="429" y="358" type="line"/>
      <point x="247" y="358" type="line"/>
      <point x="215" y="535" type="line"/>
      <point x="183" y="358" type="line"/>
      <point x="3" y="358" type="line"/>
      <point x="128" y="700" type="line"/>
      <point x="304" y="700" type="line"/>
    </contour>
  </outline>
</glyph>
<glyph name="underscore" format="1">
  <advance width="350"/>
  <unicode hex="005F"/>
  <outline>
    <contour>
      <point x="352" y="-178" type="line"/>
      <point x="-2" y="-178" type="line"/>
      <point x="-2" y="-55" type="line"/>
      <point x="352" y="-55" type="line"/>
    </contour>
  </outline>
</glyph>
<glyph name="grave" format="1">
  <advance width="330"/>
  <unicode hex="0060"/>
  <outline>
    <contour>
      <point x="-25" y="715" type="line"/>
      <point x="194" y="715" type="line"/>
      <point x="248" y="555" type="line"/>
      <point x="118" y="555" type="line"/>
    </contour>
  </outline>
</glyph>
<glyph name="a" format="1">
  <advance width="368"/>
  <unicode hex="0061"/>
  <outline>
    <contour>
      <point x="356" y="0" type="line"/>
      <point x="189" y="0" type="line"/>
      <point x="189" y="25" type="line"/>
      <point x="165" y="0"/>
      <point x="145" y="-11"/>
      <point x="114" y="-11" type="curve" smooth="yes"/>
      <point x="50" y="-11"/>
      <point x="7" y="38"/>
      <point x="7" y="162" type="curve" smooth="yes"/>
      <point x="7" y="290"/>
      <point x="49" y="343"/>
      <point x="128" y="343" type="curve" smooth="yes"/>
      <point x="155" y="343"/>
      <point x="174" y="337"/>
      <point x="189" y="329" type="curve"/>
      <point x="189" y="353" type="line" smooth="yes"/>
      <point x="189" y="382"/>
      <point x="182" y="394"/>
      <point x="157" y="394" type="curve" smooth="yes"/>
      <point x="130" y="394"/>
      <point x="101" y="383"/>
      <point x="70" y="363" type="curve"/>
      <point x="23" y="482" type="line"/>
      <point x="72" y="515"/>
      <point x="136" y="536"/>
      <point x="210" y="536" type="curve" smooth="yes"/>
      <point x="309" y="536"/>
      <point x="356" y="495"/>
      <point x="356" y="390" type="curve" smooth="yes"/>
    </contour>
    <contour>
      <point x="189" y="118" type="curve"/>
      <point x="189" y="228" type="line"/>
      <point x="187" y="229"/>
      <point x="184" y="231"/>
      <point x="181" y="231" type="curve" smooth="yes"/>
      <point x="167" y="231"/>
      <point x="163" y="224"/>
      <point x="163" y="169" type="curve" smooth="yes"/>
      <point x="163" y="123"/>
      <point x="167" y="115"/>
      <point x="181" y="115" type="curve" smooth="yes"/>
      <point x="184" y="115"/>
      <point x="187" y="117"/>
    </contour>
  </outline>
</glyph>
<glyph name="b" format="1">
  <advance width="391"/>
  <unicode hex="0062"/>
  <outline>
    <contour>
      <point x="381" y="266" type="curve" smooth="yes"/>
      <point x="381" y="45"/>
      <point x="334" y="-11"/>
      <point x="254" y="-11" type="curve" smooth="yes"/>
      <point x="226" y="-11"/>
      <point x="204" y="1"/>
      <point x="184" y="23" type="curve"/>
      <point x="184" y="0" type="line"/>
      <point x="14" y="0" type="line"/>
      <point x="14" y="681" type="line"/>
      <point x="184" y="729" type="line"/>
      <point x="184" y="500" type="line"/>
      <point x="208" y="524"/>
      <point x="230" y="536"/>
      <point x="263" y="536" type="curve" smooth="yes"/>
      <point x="335" y="536"/>
      <point x="381" y="480"/>
    </contour>
    <contour>
      <point x="211" y="263" type="curve" smooth="yes"/>
      <point x="211" y="390"/>
      <point x="206" y="394"/>
      <point x="193" y="394" type="curve" smooth="yes"/>
      <point x="189" y="394"/>
      <point x="188" y="394"/>
      <point x="184" y="392" type="curve"/>
      <point x="184" y="134" type="line"/>
      <point x="188" y="132"/>
      <point x="189" y="132"/>
      <point x="193" y="132" type="curve" smooth="yes"/>
      <point x="206" y="132"/>
      <point x="211" y="138"/>
    </contour>
  </outline>
</glyph>
<glyph name="c" format="1">
  <advance width="358"/>
  <unicode hex="0063"/>
  <outline>
    <contour>
      <point x="353" y="187" type="line"/>
      <point x="342" y="50"/>
      <point x="285" y="-11"/>
      <point x="184" y="-11" type="curve" smooth="yes"/>
      <point x="86" y="-11"/>
      <point x="9" y="48"/>
      <point x="9" y="260" type="curve" smooth="yes"/>
      <point x="9" y="465"/>
      <point x="77" y="536"/>
      <point x="184" y="536" type="curve" smooth="yes"/>
      <point x="295" y="536"/>
      <point x="344" y="457"/>
      <point x="352" y="339" type="curve"/>
      <point x="205" y="312" type="line"/>
      <point x="205" y="390"/>
      <point x="201" y="404"/>
      <point x="193" y="404" type="curve" smooth="yes"/>
      <point x="181" y="404"/>
      <point x="180" y="377"/>
      <point x="180" y="264" type="curve" smooth="yes"/>
      <point x="180" y="149"/>
      <point x="181" y="122"/>
      <point x="194" y="122" type="curve" smooth="yes"/>
      <point x="203" y="122"/>
      <point x="206" y="136"/>
      <point x="206" y="221" type="curve"/>
    </contour>
  </outline>
</glyph>
<glyph name="e" format="1">
  <advance width="369"/>
  <unicode hex="0065"/>
  <outline>
    <contour>
      <point x="362" y="217" type="curve"/>
      <point x="177" y="217" type="line"/>
      <point x="178" y="132"/>
      <point x="182" y="119"/>
      <point x="194" y="119" type="curve" smooth="yes"/>
      <point x="205" y="119"/>
      <point x="209" y="133"/>
      <point x="212" y="193" type="curve"/>
      <point x="361" y="160" type="line"/>
      <point x="346" y="57"/>
      <point x="298" y="-11"/>
      <point x="193" y="-11" type="curve" smooth="yes"/>
      <point x="62" y="-11"/>
      <point x="9" y="84"/>
      <point x="9" y="258" type="curve" smooth="yes"/>
      <point x="9" y="461"/>
      <point x="78" y="536"/>
      <point x="188" y="536" type="curve" smooth="yes"/>
      <point x="288" y="536"/>
      <point x="362" y="479"/>
      <point x="362" y="246" type="curve" smooth="yes"/>
      <point x="362" y="239"/>
      <point x="362" y="224"/>
    </contour>
    <contour>
      <point x="203" y="317" type="line"/>
      <point x="203" y="400"/>
      <point x="199" y="412"/>
      <point x="188" y="412" type="curve" smooth="yes"/>
      <point x="180" y="412"/>
      <point x="174" y="404"/>
      <point x="173" y="317" type="curve"/>
    </contour>
  </outline>
</glyph>
<glyph name="f" format="1">
  <advance width="263"/>
  <unicode hex="0066"/>
  <outline>
    <contour>
      <point x="275" y="586" type="line"/>
      <point x="264" y="589"/>
      <point x="252" y="590"/>
      <point x="238" y="590" type="curve" smooth="yes"/>
      <point x="218" y="590"/>
      <point x="208" y="577"/>
      <point x="208" y="550" type="curve" smooth="yes"/>
      <point x="208" y="525" type="line"/>
      <point x="261" y="525" type="line"/>
      <point x="261" y="386" type="line"/>
      <point x="208" y="386" type="line"/>
      <point x="208" y="0" type="line"/>
      <point x="41" y="0" type="line"/>
      <point x="41" y="386" type="line"/>
      <point x="4" y="386" type="line"/>
      <point x="4" y="525" type="line"/>
      <point x="41" y="525" type="line"/>
      <point x="41" y="584" type="line" smooth="yes"/>
      <point x="41" y="696"/>
      <point x="105" y="726"/>
      <point x="190" y="726" type="curve" smooth="yes"/>
      <point x="235" y="726"/>
      <point x="256" y="724"/>
      <point x="275" y="719" type="curve"/>
    </contour>
  </outline>
</glyph>
<glyph name="g" format="1">
  <advance width="391"/>
  <unicode hex="0067"/>
  <outline>
    <contour>
      <point x="377" y="64" type="line" smooth="yes"/>
      <point x="377" y="-115"/>
      <point x="309" y="-169"/>
      <point x="97" y="-193" type="curve"/>
      <point x="66" y="-68" type="line"/>
      <point x="181" y="-52"/>
      <point x="207" y="-30"/>
      <point x="207" y="27" type="curve" smooth="yes"/>
      <point x="207" y="35" type="line"/>
      <point x="183" y="11"/>
      <point x="161" y="-1"/>
      <point x="128" y="-1" type="curve" smooth="yes"/>
      <point x="56" y="-1"/>
      <point x="10" y="56"/>
      <point x="10" y="264" type="curve" smooth="yes"/>
      <point x="10" y="478"/>
      <point x="57" y="536"/>
      <point x="137" y="536" type="curve" smooth="yes"/>
      <point x="165" y="536"/>
      <point x="187" y="524"/>
      <point x="207" y="502" type="curve"/>
      <point x="207" y="525" type="line"/>
      <point x="377" y="525" type="line"/>
    </contour>
    <contour>
      <point x="207" y="143" type="curve"/>
      <point x="207" y="391" type="line"/>
      <point x="203" y="393"/>
      <point x="202" y="393"/>
      <point x="198" y="393" type="curve" smooth="yes"/>
      <point x="185" y="393"/>
      <point x="180" y="386"/>
      <point x="180" y="267" type="curve" smooth="yes"/>
      <point x="180" y="146"/>
      <point x="185" y="141"/>
      <point x="198" y="141" type="curve" smooth="yes"/>
      <point x="202" y="141"/>
      <point x="203" y="141"/>
    </contour>
  </outline>
</glyph>
<glyph name="i" format="1">
  <advance width="200"/>
  <unicode hex="0069"/>
  <outline>
    <contour>
      <point x="194" y="632" type="curve" smooth="yes"/>
      <point x="194" y="582"/>
      <point x="156" y="550"/>
      <point x="100" y="550" type="curve" smooth="yes"/>
      <point x="44" y="550"/>
      <point x="6" y="582"/>
      <point x="6" y="632" type="curve" smooth="yes"/>
      <point x="6" y="682"/>
      <point x="44" y="714"/>
      <point x="100" y="714" type="curve" smooth="yes"/>
      <point x="156" y="714"/>
      <point x="194" y="682"/>
    </contour>
    <contour>
      <point x="185" y="0" type="line"/>
      <point x="15" y="0" type="line"/>
      <point x="15" y="525" type="line"/>
      <point x="185" y="525" type="line"/>
    </contour>
  </outline>
</glyph>
<glyph name="j" format="1">
  <advance width="200"/>
  <unicode hex="006A"/>
  <outline>
    <contour>
      <point x="194" y="632" type="curve" smooth="yes"/>
      <point x="194" y="582"/>
      <point x="156" y="550"/>
      <point x="100" y="550" type="curve" smooth="yes"/>
      <point x="44" y="550"/>
      <point x="6" y="582"/>
      <point x="6" y="632" type="curve" smooth="yes"/>
      <point x="6" y="682"/>
      <point x="44" y="714"/>
      <point x="100" y="714" type="curve" smooth="yes"/>
      <point x="156" y="714"/>
      <point x="194" y="682"/>
    </contour>
    <contour>
      <point x="185" y="3" type="line" smooth="yes"/>
      <point x="185" y="-134"/>
      <point x="131" y="-170"/>
      <point x="-26" y="-193" type="curve"/>
      <point x="-55" y="-71" type="line"/>
      <point x="1" y="-59"/>
      <point x="15" y="-48"/>
      <point x="15" y="4" type="curve" smooth="yes"/>
      <point x="15" y="525" type="line"/>
      <point x="185" y="525" type="line"/>
    </contour>
  </outline>
</glyph>
<glyph name="k" format="1">
  <advance width="395"/>
  <unicode hex="006B"/>
  <outline>
    <contour>
      <point x="396" y="0" type="line"/>
      <point x="224" y="0" type="line"/>
      <point x="191" y="199" type="line"/>
      <point x="184" y="178" type="line"/>
      <point x="184" y="0" type="line"/>
      <point x="14" y="0" type="line"/>
      <point x="14" y="681" type="line"/>
      <point x="184" y="729" type="line"/>
      <point x="184" y="482" type="line" smooth="yes"/>
      <point x="184" y="446"/>
      <point x="183" y="401"/>
      <point x="182" y="364" type="curve"/>
      <point x="191" y="409"/>
      <point x="201" y="452"/>
      <point x="210" y="483" type="curve" smooth="yes"/>
      <point x="222" y="525" type="line"/>
      <point x="394" y="525" type="line"/>
      <point x="327" y="357" type="line"/>
    </contour>
  </outline>
</glyph>
<glyph name="l" format="1">
  <advance width="200"/>
  <unicode hex="006C"/>
  <outline>
    <contour>
      <point x="185" y="0" type="line"/>
      <point x="15" y="0" type="line"/>
      <point x="15" y="681" type="line"/>
      <point x="185" y="729" type="line"/>
    </contour>
  </outline>
</glyph>
<glyph name="m" format="1">
  <advance width="586"/>
  <unicode hex="006D"/>
  <outline>
    <contour>
      <point x="574" y="0" type="line"/>
      <point x="404" y="0" type="line"/>
      <point x="404" y="377" type="line" smooth="yes"/>
      <point x="404" y="388"/>
      <point x="400" y="393"/>
      <point x="393" y="393" type="curve" smooth="yes"/>
      <point x="389" y="393"/>
      <point x="384" y="392"/>
      <point x="379" y="390" type="curve"/>
      <point x="379" y="0" type="line"/>
      <point x="209" y="0" type="line"/>
      <point x="209" y="377" type="line" smooth="yes"/>
      <point x="209" y="388"/>
      <point x="205" y="393"/>
      <point x="198" y="393" type="curve" smooth="yes"/>
      <point x="194" y="393"/>
      <point x="189" y="392"/>
      <point x="184" y="390" type="curve"/>
      <point x="184" y="0" type="line"/>
      <point x="14" y="0" type="line"/>
      <point x="14" y="525" type="line"/>
      <point x="184" y="525" type="line"/>
      <point x="184" y="499" type="line"/>
      <point x="212" y="522"/>
      <point x="244" y="536"/>
      <point x="286" y="536" type="curve" smooth="yes"/>
      <point x="330" y="536"/>
      <point x="350" y="523"/>
      <point x="370" y="496" type="curve"/>
      <point x="401" y="521"/>
      <point x="432" y="536"/>
      <point x="473" y="536" type="curve" smooth="yes"/>
      <point x="536" y="536"/>
      <point x="574" y="503"/>
      <point x="574" y="419" type="curve" smooth="yes"/>
    </contour>
  </outline>
</glyph>
<glyph name="n" format="1">
  <advance width="391"/>
  <unicode hex="006E"/>
  <outline>
    <contour>
      <point x="379" y="0" type="line"/>
      <point x="209" y="0" type="line"/>
      <point x="209" y="377" type="line" smooth="yes"/>
      <point x="209" y="388"/>
      <point x="205" y="393"/>
      <point x="198" y="393" type="curve" smooth="yes"/>
      <point x="194" y="393"/>
      <point x="189" y="392"/>
      <point x="184" y="390" type="curve"/>
      <point x="184" y="0" type="line"/>
      <point x="14" y="0" type="line"/>
      <point x="14" y="525" type="line"/>
      <point x="184" y="525" type="line"/>
      <point x="184" y="499" type="line"/>
      <point x="212" y="522"/>
      <point x="241" y="536"/>
      <point x="282" y="536" type="curve" smooth="yes"/>
      <point x="341" y="536"/>
      <point x="379" y="506"/>
      <point x="379" y="419" type="curve" smooth="yes"/>
    </contour>
  </outline>
</glyph>
<glyph name="o" format="1">
  <advance width="386"/>
  <unicode hex="006F"/>
  <outline>
    <contour>
      <point x="377" y="264" type="curve" smooth="yes"/>
      <point x="377" y="57"/>
      <point x="305" y="-11"/>
      <point x="191" y="-11" type="curve" smooth="yes"/>
      <point x="84" y="-11"/>
      <point x="9" y="54"/>
      <point x="9" y="260" type="curve" smooth="yes"/>
      <point x="9" y="459"/>
      <point x="75" y="536"/>
      <point x="195" y="536" type="curve" smooth="yes"/>
      <point x="305" y="536"/>
      <point x="377" y="468"/>
    </contour>
    <contour>
      <point x="207" y="261" type="curve" smooth="yes"/>
      <point x="207" y="380"/>
      <point x="205" y="404"/>
      <point x="193" y="404" type="curve" smooth="yes"/>
      <point x="181" y="404"/>
      <point x="180" y="377"/>
      <point x="180" y="264" type="curve" smooth="yes"/>
      <point x="180" y="149"/>
      <point x="181" y="122"/>
      <point x="194" y="122" type="curve" smooth="yes"/>
      <point x="206" y="122"/>
      <point x="207" y="148"/>
    </contour>
  </outline>
</glyph>
<glyph name="p" format="1">
  <advance width="391"/>
  <unicode hex="0070"/>
  <outline>
    <contour>
      <point x="381" y="266" type="curve" smooth="yes"/>
      <point x="381" y="45"/>
      <point x="334" y="-11"/>
      <point x="254" y="-11" type="curve" smooth="yes"/>
      <point x="226" y="-11"/>
      <point x="204" y="1"/>
      <point x="184" y="23" type="curve"/>
      <point x="184" y="-145" type="line"/>
      <point x="14" y="-193" type="line"/>
      <point x="14" y="525" type="line"/>
      <point x="184" y="525" type="line"/>
      <point x="184" y="500" type="line"/>
      <point x="208" y="524"/>
      <point x="230" y="536"/>
      <point x="263" y="536" type="curve" smooth="yes"/>
      <point x="335" y="536"/>
      <point x="381" y="480"/>
    </contour>
    <contour>
      <point x="211" y="263" type="curve" smooth="yes"/>
      <point x="211" y="390"/>
      <point x="206" y="394"/>
      <point x="193" y="394" type="curve" smooth="yes"/>
      <point x="189" y="394"/>
      <point x="188" y="394"/>
      <point x="184" y="392" type="curve"/>
      <point x="184" y="134" type="line"/>
      <point x="188" y="132"/>
      <point x="189" y="132"/>
      <point x="193" y="132" type="curve" smooth="yes"/>
      <point x="206" y="132"/>
      <point x="211" y="138"/>
    </contour>
  </outline>
</glyph>
<glyph name="r" format="1">
  <advance width="299"/>
  <unicode hex="0072"/>
  <outline>
    <contour>
      <point x="296" y="527" type="curve"/>
      <point x="280" y="359" type="line"/>
      <point x="263" y="372"/>
      <point x="250" y="377"/>
      <point x="229" y="377" type="curve" smooth="yes"/>
      <point x="211" y="377"/>
      <point x="196" y="372"/>
      <point x="184" y="359" type="curve"/>
      <point x="184" y="0" type="line"/>
      <point x="14" y="0" type="line"/>
      <point x="14" y="525" type="line"/>
      <point x="184" y="525" type="line"/>
      <point x="184" y="497" type="line"/>
      <point x="201" y="519"/>
      <point x="224" y="534"/>
      <point x="251" y="534" type="curve" smooth="yes"/>
      <point x="275" y="534"/>
      <point x="285" y="531"/>
    </contour>
  </outline>
</glyph>
<glyph name="s" format="1">
  <advance width="356"/>
  <unicode hex="0073"/>
  <outline>
    <contour>
      <point x="345" y="167" type="curve" smooth="yes"/>
      <point x="345" y="110"/>
      <point x="328" y="63"/>
      <point x="297" y="32" type="curve" smooth="yes"/>
      <point x="268" y="3"/>
      <point x="228" y="-11"/>
      <point x="170" y="-11" type="curve" smooth="yes"/>
      <point x="111" y="-11"/>
      <point x="47" y="17"/>
      <point x="-4" y="61" type="curve"/>
      <point x="75" y="197" type="line"/>
      <point x="121" y="160"/>
      <point x="164" y="137"/>
      <point x="184" y="137" type="curve" smooth="yes"/>
      <point x="191" y="137"/>
      <point x="196" y="141"/>
      <point x="196" y="146" type="curve" smooth="yes"/>
      <point x="196" y="153"/>
      <point x="191" y="159"/>
      <point x="157" y="176" type="curve" smooth="yes"/>
      <point x="112" y="199"/>
      <point x="79" y="220"/>
      <point x="58" y="241" type="curve" smooth="yes"/>
      <point x="28" y="271"/>
      <point x="16" y="308"/>
      <point x="16" y="361" type="curve" smooth="yes"/>
      <point x="16" y="418"/>
      <point x="29" y="461"/>
      <point x="62" y="494" type="curve" smooth="yes"/>
      <point x="90" y="522"/>
      <point x="126" y="536"/>
      <point x="180" y="536" type="curve" smooth="yes"/>
      <point x="237" y="536"/>
      <point x="294" y="515"/>
      <point x="345" y="476" type="curve"/>
      <point x="266" y="342" type="line"/>
      <point x="222" y="376"/>
      <point x="191" y="388"/>
      <point x="176" y="388" type="curve" smooth="yes"/>
      <point x="169" y="388"/>
      <point x="165" y="385"/>
      <point x="165" y="380" type="curve" smooth="yes"/>
      <point x="165" y="375"/>
      <point x="167" y="371"/>
      <point x="202" y="353" type="curve" smooth="yes"/>
      <point x="248" y="330"/>
      <point x="282" y="310"/>
      <point x="304" y="288" type="curve" smooth="yes"/>
      <point x="335" y="257"/>
      <point x="345" y="221"/>
    </contour>
  </outline>
</glyph>
<glyph name="t" format="1">
  <advance width="278"/>
  <unicode hex="0074"/>
  <outline>
    <contour>
      <point x="276" y="143" type="curve"/>
      <point x="265" y="4" type="line"/>
      <point x="240" y="-6"/>
      <point x="215" y="-11"/>
      <point x="183" y="-11" type="curve" smooth="yes"/>
      <point x="93" y="-11"/>
      <point x="40" y="21"/>
      <point x="40" y="118" type="curve" smooth="yes"/>
      <point x="40" y="386" type="line"/>
      <point x="3" y="386" type="line"/>
      <point x="3" y="525" type="line"/>
      <point x="40" y="525" type="line"/>
      <point x="40" y="682" type="line"/>
      <point x="207" y="729" type="line"/>
      <point x="207" y="525" type="line"/>
      <point x="271" y="525" type="line"/>
      <point x="271" y="386" type="line"/>
      <point x="207" y="386" type="line"/>
      <point x="207" y="167" type="line" smooth="yes"/>
      <point x="207" y="143"/>
      <point x="216" y="131"/>
      <point x="232" y="131" type="curve" smooth="yes"/>
      <point x="250" y="131"/>
      <point x="260" y="135"/>
    </contour>
  </outline>
</glyph>
<glyph name="u" format="1">
  <advance width="391"/>
  <unicode hex="0075"/>
  <outline>
    <contour>
      <point x="377" y="0" type="line"/>
      <point x="207" y="0" type="line"/>
      <point x="207" y="26" type="line"/>
      <point x="179" y="3"/>
      <point x="150" y="-11"/>
      <point x="109" y="-11" type="curve" smooth="yes"/>
      <point x="50" y="-11"/>
      <point x="12" y="19"/>
      <point x="12" y="106" type="curve" smooth="yes"/>
      <point x="12" y="525" type="line"/>
      <point x="182" y="525" type="line"/>
      <point x="182" y="148" type="line" smooth="yes"/>
      <point x="182" y="137"/>
      <point x="186" y="132"/>
      <point x="193" y="132" type="curve" smooth="yes"/>
      <point x="197" y="132"/>
      <point x="202" y="133"/>
      <point x="207" y="135" type="curve"/>
      <point x="207" y="525" type="line"/>
      <point x="377" y="525" type="line"/>
    </contour>
  </outline>
</glyph>
<glyph name="v" format="1">
  <advance width="404"/>
  <unicode hex="0076"/>
  <outline>
    <contour>
      <point x="407" y="525" type="line"/>
      <point x="313" y="0" type="line"/>
      <point x="91" y="0" type="line"/>
      <point x="-3" y="525" type="line"/>
      <point x="179" y="525" type="line"/>
      <point x="189" y="404" type="line" smooth="yes"/>
      <point x="196" y="315"/>
      <point x="203" y="232"/>
      <point x="206" y="134" type="curve"/>
      <point x="209" y="232"/>
      <point x="216" y="314"/>
      <point x="223" y="404" type="curve" smooth="yes"/>
      <point x="233" y="525" type="line"/>
    </contour>
  </outline>
</glyph>
<glyph name="w" format="1">
  <advance width="554"/>
  <unicode hex="0077"/>
  <outline>
    <contour>
      <point x="553" y="525" type="line"/>
      <point x="494" y="0" type="line"/>
      <point x="297" y="0" type="line"/>
      <point x="292" y="72" type="line" smooth="yes"/>
      <point x="286" y="152"/>
      <point x="279" y="233"/>
      <point x="276" y="302" type="curve"/>
      <point x="273" y="233"/>
      <point x="266" y="152"/>
      <point x="260" y="72" type="curve" smooth="yes"/>
      <point x="255" y="0" type="line"/>
      <point x="58" y="0" type="line"/>
      <point x="-1" y="525" type="line"/>
      <point x="166" y="525" type="line"/>
      <point x="171" y="422" type="line" smooth="yes"/>
      <point x="174" y="364"/>
      <point x="179" y="239"/>
      <point x="179" y="177" type="curve"/>
      <point x="183" y="239"/>
      <point x="194" y="364"/>
      <point x="198" y="425" type="curve" smooth="yes"/>
      <point x="204" y="525" type="line"/>
      <point x="350" y="525" type="line"/>
      <point x="356" y="425" type="line" smooth="yes"/>
      <point x="360" y="364"/>
      <point x="371" y="239"/>
      <point x="374" y="177" type="curve"/>
      <point x="374" y="239"/>
      <point x="380" y="364"/>
      <point x="383" y="422" type="curve" smooth="yes"/>
      <point x="388" y="525" type="line"/>
    </contour>
  </outline>
</glyph>
<glyph name="x" format="1">
  <advance width="400"/>
  <unicode hex="0078"/>
  <outline>
    <contour>
      <point x="402" y="0" type="line"/>
      <point x="228" y="0" type="line"/>
      <point x="218" y="49" type="line" smooth="yes"/>
      <point x="211" y="85"/>
      <point x="203" y="131"/>
      <point x="199" y="164" type="curve"/>
      <point x="195" y="130"/>
      <point x="187" y="85"/>
      <point x="180" y="49" type="curve" smooth="yes"/>
      <point x="170" y="0" type="line"/>
      <point x="-2" y="0" type="line"/>
      <point x="95" y="268" type="line"/>
      <point x="4" y="525" type="line"/>
      <point x="176" y="525" type="line"/>
      <point x="182" y="497" type="line" smooth="yes"/>
      <point x="190" y="460"/>
      <point x="198" y="412"/>
      <point x="201" y="379" type="curve"/>
      <point x="204" y="413"/>
      <point x="212" y="460"/>
      <point x="220" y="497" type="curve" smooth="yes"/>
      <point x="226" y="525" type="line"/>
      <point x="396" y="525" type="line"/>
      <point x="305" y="272" type="line"/>
    </contour>
  </outline>
</glyph>
<glyph name="y" format="1">
  <advance width="404"/>
  <unicode hex="0079"/>
  <outline>
    <contour>
      <point x="407" y="525" type="line"/>
      <point x="259" y="-185" type="line"/>
      <point x="78" y="-185" type="line"/>
      <point x="110" y="-39" type="line"/>
      <point x="-3" y="525" type="line"/>
      <point x="179" y="525" type="line"/>
      <point x="189" y="404" type="line" smooth="yes"/>
      <point x="196" y="315"/>
      <point x="203" y="232"/>
      <point x="206" y="134" type="curve"/>
      <point x="209" y="232"/>
      <point x="216" y="314"/>
      <point x="223" y="404" type="curve" smooth="yes"/>
      <point x="233" y="525" type="line"/>
    </contour>
  </outline>
</glyph>
<glyph name="z" format="1">
  <advance width="338"/>
  <unicode hex="007A"/>
  <outline>
    <contour>
      <point x="329" y="0" type="line"/>
      <point x="9" y="0" type="line"/>
      <point x="9" y="133" type="line"/>
      <point x="85" y="284" type="line" smooth="yes"/>
      <point x="103" y="319"/>
      <point x="127" y="360"/>
      <point x="143" y="386" type="curve"/>
      <point x="120" y="385"/>
      <point x="92" y="385"/>
      <point x="64" y="385" type="curve" smooth="yes"/>
      <point x="23" y="385" type="line"/>
      <point x="23" y="525" type="line"/>
      <point x="329" y="525" type="line"/>
      <point x="329" y="392" type="line"/>
      <point x="253" y="241" type="line" smooth="yes"/>
      <point x="235" y="206"/>
      <point x="211" y="165"/>
      <point x="195" y="139" type="curve"/>
      <point x="218" y="140"/>
      <point x="246" y="140"/>
      <point x="274" y="140" type="curve" smooth="yes"/>
      <point x="329" y="140" type="line"/>
    </contour>
  </outline>
</glyph>
<glyph name="braceleft" format="1">
  <advance width="329"/>
  <unicode hex="007B"/>
  <outline>
    <contour>
      <point x="317" y="-109" type="line"/>
      <point x="150" y="-109"/>
      <point x="76" y="-62"/>
      <point x="76" y="90" type="curve" smooth="yes"/>
      <point x="76" y="164" type="line" smooth="yes"/>
      <point x="76" y="213"/>
      <point x="63" y="234"/>
      <point x="21" y="234" type="curve" smooth="yes"/>
      <point x="5" y="234" type="line"/>
      <point x="5" y="368" type="line"/>
      <point x="21" y="368" type="line" smooth="yes"/>
      <point x="63" y="368"/>
      <point x="76" y="389"/>
      <point x="76" y="438" type="curve" smooth="yes"/>
      <point x="76" y="512" type="line" smooth="yes"/>
      <point x="76" y="664"/>
      <point x="150" y="711"/>
      <point x="317" y="711" type="curve"/>
      <point x="317" y="598" type="line"/>
      <point x="263" y="593"/>
      <point x="235" y="570"/>
      <point x="235" y="499" type="curve" smooth="yes"/>
      <point x="235" y="457" type="line" smooth="yes"/>
      <point x="235" y="363"/>
      <point x="221" y="322"/>
      <point x="159" y="301" type="curve"/>
      <point x="221" y="280"/>
      <point x="235" y="239"/>
      <point x="235" y="145" type="curve" smooth="yes"/>
      <point x="235" y="103" type="line" smooth="yes"/>
      <point x="235" y="32"/>
      <point x="263" y="9"/>
      <point x="317" y="4" type="curve"/>
    </contour>
  </outline>
</glyph>
<glyph name="bar" format="1">
  <advance width="204"/>
  <unicode hex="007C"/>
  <outline>
    <contour>
      <point x="183" y="-185" type="line"/>
      <point x="21" y="-185" type="line"/>
      <point x="21" y="800" type="line"/>
      <point x="183" y="800" type="line"/>
    </contour>
  </outline>
</glyph>
<glyph name="braceright" format="1">
  <advance width="329"/>
  <unicode hex="007D"/>
  <outline>
    <contour>
      <point x="324" y="234" type="line"/>
      <point x="308" y="234" type="line" smooth="yes"/>
      <point x="266" y="234"/>
      <point x="253" y="213"/>
      <point x="253" y="164" type="curve" smooth="yes"/>
      <point x="253" y="90" type="line" smooth="yes"/>
      <point x="253" y="-62"/>
      <point x="179" y="-109"/>
      <point x="12" y="-109" type="curve"/>
      <point x="12" y="4" type="line"/>
      <point x="66" y="9"/>
      <point x="94" y="32"/>
      <point x="94" y="103" type="curve" smooth="yes"/>
      <point x="94" y="145" type="line" smooth="yes"/>
      <point x="94" y="239"/>
      <point x="108" y="280"/>
      <point x="170" y="301" type="curve"/>
      <point x="108" y="322"/>
      <point x="94" y="363"/>
      <point x="94" y="457" type="curve" smooth="yes"/>
      <point x="94" y="499" type="line" smooth="yes"/>
      <point x="94" y="570"/>
      <point x="66" y="593"/>
      <point x="12" y="598" type="curve"/>
      <point x="12" y="711" type="line"/>
      <point x="179" y="711"/>
      <point x="253" y="664"/>
      <point x="253" y="512" type="curve" smooth="yes"/>
      <point x="253" y="438" type="line" smooth="yes"/>
      <point x="253" y="389"/>
      <point x="266" y="368"/>
      <point x="308" y="368" type="curve" smooth="yes"/>
      <point x="324" y="368" type="line"/>
    </contour>
  </outline>
</glyph>
<glyph name="asciitilde" format="1">
  <advance width="432"/>
  <unicode hex="007E"/>
  <outline>
    <contour>
      <point x="432" y="454" type="line"/>
      <point x="426" y="420" type="line" smooth="yes"/>
      <point x="400" y="272"/>
      <point x="367" y="244"/>
      <point x="294" y="244" type="curve" smooth="yes"/>
      <point x="224" y="244"/>
      <point x="163" y="304"/>
      <point x="142" y="304" type="curve" smooth="yes"/>
      <point x="130" y="304"/>
      <point x="128" y="290"/>
      <point x="120" y="235" type="curve"/>
      <point x="0" y="253" type="line"/>
      <point x="6" y="288" type="line" smooth="yes"/>
      <point x="29" y="422"/>
      <point x="64" y="464"/>
      <point x="138" y="464" type="curve" smooth="yes"/>
      <point x="207" y="464"/>
      <point x="268" y="404"/>
      <point x="289" y="404" type="curve" smooth="yes"/>
      <point x="301" y="404"/>
      <point x="302" y="413"/>
      <point x="313" y="473" type="curve"/>
    </contour>
  </outline>
</glyph>
<glyph name="exclamdown" format="1">
  <advance width="212"/>
  <unicode hex="00A1"/>
  <outline>
    <contour>
      <point x="12" y="612" type="curve" smooth="yes"/>
      <point x="12" y="672"/>
      <point x="49" y="711"/>
      <point x="106" y="711" type="curve" smooth="yes"/>
      <point x="163" y="711"/>
      <point x="200" y="672"/>
      <point x="200" y="612" type="curve" smooth="yes"/>
      <point x="200" y="552"/>
      <point x="163" y="513"/>
      <point x="106" y="513" type="curve" smooth="yes"/>
      <point x="49" y="513"/>
      <point x="12" y="552"/>
    </contour>
    <contour>
      <point x="16" y="282" type="line"/>
      <point x="49" y="488" type="line"/>
      <point x="163" y="488" type="line"/>
      <point x="194" y="282" type="line"/>
      <point x="194" y="0" type="line"/>
      <point x="16" y="0" type="line"/>
    </contour>
  </outline>
</glyph>
<glyph name="cent" format="1">
  <advance width="358"/>
  <unicode hex="00A2"/>
  <outline>
    <contour>
      <point x="268" y="605" type="line"/>
      <point x="321" y="574"/>
      <point x="346" y="510"/>
      <point x="352" y="428" type="curve"/>
      <point x="205" y="401" type="line"/>
      <point x="205" y="479"/>
      <point x="201" y="493"/>
      <point x="193" y="493" type="curve" smooth="yes"/>
      <point x="181" y="493"/>
      <point x="180" y="466"/>
      <point x="180" y="353" type="curve" smooth="yes"/>
      <point x="180" y="238"/>
      <point x="181" y="211"/>
      <point x="194" y="211" type="curve" smooth="yes"/>
      <point x="203" y="211"/>
      <point x="206" y="225"/>
      <point x="206" y="310" type="curve"/>
      <point x="353" y="276" type="line"/>
      <point x="346" y="183"/>
      <point x="317" y="125"/>
      <point x="268" y="98" type="curve"/>
      <point x="268" y="-11" type="line"/>
      <point x="94" y="-11" type="line"/>
      <point x="94" y="102" type="line"/>
      <point x="43" y="136"/>
      <point x="9" y="209"/>
      <point x="9" y="349" type="curve" smooth="yes"/>
      <point x="9" y="488"/>
      <point x="40" y="566"/>
      <point x="94" y="601" type="curve"/>
      <point x="94" y="723" type="line"/>
      <point x="268" y="723" type="line"/>
    </contour>
  </outline>
</glyph>
<glyph name="sterling" format="1">
  <advance width="369"/>
  <unicode hex="00A3"/>
  <outline>
    <contour>
      <point x="52" y="259" type="curve"/>
      <point x="16" y="259" type="line"/>
      <point x="16" y="390" type="line"/>
      <point x="41" y="390" type="line"/>
      <point x="28" y="442"/>
      <point x="11" y="493"/>
      <point x="11" y="548" type="curve" smooth="yes"/>
      <point x="11" y="636"/>
      <point x="61" y="711"/>
      <point x="188" y="711" type="curve" smooth="yes"/>
      <point x="298" y="711"/>
      <point x="360" y="647"/>
      <point x="366" y="504" type="curve"/>
      <point x="215" y="479" type="line"/>
      <point x="216" y="535"/>
      <point x="209" y="562"/>
      <point x="193" y="562" type="curve" smooth="yes"/>
      <point x="185" y="562"/>
      <point x="179" y="555"/>
      <point x="179" y="539" type="curve" smooth="yes"/>
      <point x="179" y="502"/>
      <point x="197" y="449"/>
      <point x="211" y="390" type="curve"/>
      <point x="302" y="390" type="line"/>
      <point x="302" y="259" type="line"/>
      <point x="224" y="259" type="line"/>
      <point x="221" y="223"/>
      <point x="211" y="188"/>
      <point x="190" y="154" type="curve"/>
      <point x="365" y="154" type="line"/>
      <point x="365" y="0" type="line"/>
      <point x="6" y="0" type="line"/>
      <point x="6" y="137" type="line"/>
      <point x="34" y="182"/>
      <point x="47" y="222"/>
    </contour>
  </outline>
</glyph>
<glyph name="yen" format="1">
  <advance width="410"/>
  <unicode hex="00A5"/>
  <outline>
    <contour>
      <point x="293" y="102" type="line"/>
      <point x="293" y="0" type="line"/>
      <point x="117" y="0" type="line"/>
      <point x="117" y="102" type="line"/>
      <point x="35" y="102" type="line"/>
      <point x="35" y="233" type="line"/>
      <point x="117" y="233" type="line"/>
      <point x="117" y="270" type="line"/>
      <point x="-1" y="700" type="line"/>
      <point x="178" y="700" type="line"/>
      <point x="187" y="625" type="line" smooth="yes"/>
      <point x="196" y="547"/>
      <point x="205" y="476"/>
      <point x="207" y="415" type="curve"/>
      <point x="209" y="476"/>
      <point x="218" y="547"/>
      <point x="227" y="625" type="curve" smooth="yes"/>
      <point x="236" y="700" type="line"/>
      <point x="411" y="700" type="line"/>
      <point x="293" y="270" type="line"/>
      <point x="293" y="233" type="line"/>
      <point x="377" y="233" type="line"/>
      <point x="377" y="102" type="line"/>
    </contour>
  </outline>
</glyph>
<glyph name="section" format="1">
  <advance width="433"/>
  <unicode hex="00A7"/>
  <outline>
    <contour>
      <point x="88" y="390" type="curve"/>
      <point x="51" y="422"/>
      <point x="24" y="468"/>
      <point x="30" y="539" type="curve" smooth="yes"/>
      <point x="39" y="645"/>
      <point x="113" y="712"/>
      <point x="218" y="712" type="curve" smooth="yes"/>
      <point x="305" y="712"/>
      <point x="371" y="668"/>
      <point x="404" y="625" type="curve"/>
      <point x="312" y="519" type="line"/>
      <point x="282" y="547"/>
      <point x="239" y="583"/>
      <point x="211" y="583" type="curve" smooth="yes"/>
      <point x="201" y="583"/>
      <point x="195" y="580"/>
      <point x="192" y="574" type="curve" smooth="yes"/>
      <point x="183" y="553"/>
      <point x="212" y="538"/>
      <point x="287" y="501" type="curve" smooth="yes"/>
      <point x="355" y="468"/>
      <point x="431" y="410"/>
      <point x="425" y="308" type="curve" smooth="yes"/>
      <point x="420" y="233"/>
      <point x="379" y="186"/>
      <point x="341" y="158" type="curve"/>
      <point x="378" y="126"/>
      <point x="405" y="80"/>
      <point x="399" y="9" type="curve" smooth="yes"/>
      <point x="390" y="-97"/>
      <point x="316" y="-164"/>
      <point x="211" y="-164" type="curve" smooth="yes"/>
      <point x="124" y="-164"/>
      <point x="58" y="-120"/>
      <point x="25" y="-77" type="curve"/>
      <point x="117" y="29" type="line"/>
      <point x="147" y="1"/>
      <point x="190" y="-35"/>
      <point x="218" y="-35" type="curve" smooth="yes"/>
      <point x="228" y="-35"/>
      <point x="234" y="-32"/>
      <point x="237" y="-26" type="curve" smooth="yes"/>
      <point x="246" y="-5"/>
      <point x="217" y="10"/>
      <point x="142" y="47" type="curve" smooth="yes"/>
      <point x="74" y="80"/>
      <point x="-2" y="138"/>
      <point x="4" y="240" type="curve" smooth="yes"/>
      <point x="9" y="315"/>
      <point x="50" y="362"/>
    </contour>
    <contour>
      <point x="242" y="216" type="curve"/>
      <point x="252" y="228"/>
      <point x="260" y="240"/>
      <point x="263" y="257" type="curve" smooth="yes"/>
      <point x="270" y="292"/>
      <point x="234" y="310"/>
      <point x="187" y="332" type="curve"/>
      <point x="177" y="320"/>
      <point x="169" y="308"/>
      <point x="166" y="291" type="curve" smooth="yes"/>
      <point x="159" y="256"/>
      <point x="195" y="238"/>
    </contour>
  </outline>
</glyph>
<glyph name="dieresis" format="1">
  <advance width="324"/>
  <unicode hex="00A8"/>
  <outline>
    <contour>
      <point x="332" y="626" type="curve" smooth="yes"/>
      <point x="332" y="582"/>
      <point x="294" y="546"/>
      <point x="250" y="546" type="curve" smooth="yes"/>
      <point x="204" y="546"/>
      <point x="168" y="582"/>
      <point x="168" y="626" type="curve" smooth="yes"/>
      <point x="168" y="671"/>
      <point x="204" y="708"/>
      <point x="250" y="708" type="curve" smooth="yes"/>
      <point x="294" y="708"/>
      <point x="332" y="671"/>
    </contour>
    <contour>
      <point x="158" y="626" type="curve" smooth="yes"/>
      <point x="158" y="582"/>
      <point x="120" y="546"/>
      <point x="75" y="546" type="curve" smooth="yes"/>
      <point x="30" y="546"/>
      <point x="-8" y="582"/>
      <point x="-8" y="626" type="curve" smooth="yes"/>
      <point x="-8" y="671"/>
      <point x="30" y="708"/>
      <point x="75" y="708" type="curve" smooth="yes"/>
      <point x="120" y="708"/>
      <point x="158" y="671"/>
    </contour>
  </outline>
</glyph>
<glyph name="copyright" format="1">
  <advance width="468"/>
  <unicode hex="00A9"/>
  <outline>
    <contour>
      <point x="454" y="350" type="curve" smooth="yes"/>
      <point x="454" y="124"/>
      <point x="406" y="-11"/>
      <point x="233" y="-11" type="curve" smooth="yes"/>
      <point x="60" y="-11"/>
      <point x="14" y="124"/>
      <point x="14" y="350" type="curve" smooth="yes"/>
      <point x="14" y="576"/>
      <point x="60" y="711"/>
      <point x="233" y="711" type="curve" smooth="yes"/>
      <point x="406" y="711"/>
      <point x="454" y="576"/>
    </contour>
    <contour>
      <point x="387" y="350" type="curve" smooth="yes"/>
      <point x="387" y="551"/>
      <point x="352" y="653"/>
      <point x="233" y="653" type="curve" smooth="yes"/>
      <point x="114" y="653"/>
      <point x="81" y="551"/>
      <point x="81" y="350" type="curve" smooth="yes"/>
      <point x="81" y="149"/>
      <point x="114" y="47"/>
      <point x="233" y="47" type="curve" smooth="yes"/>
      <point x="353" y="47"/>
      <point x="387" y="148"/>
    </contour>
    <contour>
      <point x="340" y="293" type="line"/>
      <point x="330" y="201"/>
      <point x="307" y="150"/>
      <point x="234" y="150" type="curve" smooth="yes"/>
      <point x="160" y="150"/>
      <point x="121" y="193"/>
      <point x="121" y="356" type="curve" smooth="yes"/>
      <point x="121" y="519"/>
      <point x="160" y="561"/>
      <point x="234" y="561" type="curve" smooth="yes"/>
      <point x="308" y="561"/>
      <point x="333" y="507"/>
      <point x="339" y="416" type="curve"/>
      <point x="243" y="403" type="line"/>
      <point x="242" y="465"/>
      <point x="240" y="473"/>
      <point x="234" y="473" type="curve" smooth="yes"/>
      <point x="228" y="473"/>
      <point x="226" y="468"/>
      <point x="226" y="356" type="curve" smooth="yes"/>
      <point x="226" y="243"/>
      <point x="228" y="238"/>
      <point x="234" y="238" type="curve" smooth="yes"/>
      <point x="240" y="238"/>
      <point x="241" y="242"/>
      <point x="244" y="309" type="curve"/>
    </contour>
  </outline>
</glyph>
<glyph name="ordfeminine" format="1">
  <advance width="331"/>
  <unicode hex="00AA"/>
  <outline>
    <contour>
      <point x="313" y="281" type="line"/>
      <point x="169" y="281" type="line"/>
      <point x="169" y="301" type="line"/>
      <point x="150" y="281"/>
      <point x="134" y="272"/>
      <point x="109" y="272" type="curve" smooth="yes"/>
      <point x="58" y="272"/>
      <point x="14" y="311"/>
      <point x="14" y="410" type="curve" smooth="yes"/>
      <point x="14" y="513"/>
      <point x="57" y="555"/>
      <point x="121" y="555" type="curve" smooth="yes"/>
      <point x="142" y="555"/>
      <point x="157" y="550"/>
      <point x="169" y="544" type="curve"/>
      <point x="169" y="563" type="line" smooth="yes"/>
      <point x="169" y="586"/>
      <point x="164" y="591"/>
      <point x="144" y="591" type="curve" smooth="yes"/>
      <point x="122" y="591"/>
      <point x="89" y="582"/>
      <point x="64" y="566" type="curve"/>
      <point x="27" y="666" type="line"/>
      <point x="66" y="693"/>
      <point x="127" y="710"/>
      <point x="186" y="710" type="curve" smooth="yes"/>
      <point x="265" y="710"/>
      <point x="313" y="677"/>
      <point x="313" y="593" type="curve" smooth="yes"/>
    </contour>
    <contour>
      <point x="169" y="377" type="curve"/>
      <point x="169" y="461" type="line"/>
      <point x="168" y="462"/>
      <point x="165" y="464"/>
      <point x="163" y="464" type="curve" smooth="yes"/>
      <point x="152" y="464"/>
      <point x="149" y="460"/>
      <point x="149" y="416" type="curve" smooth="yes"/>
      <point x="149" y="379"/>
      <point x="152" y="375"/>
      <point x="163" y="375" type="curve" smooth="yes"/>
      <point x="165" y="375"/>
      <point x="168" y="376"/>
    </contour>
  </outline>
</glyph>
<glyph name="guillemotleft" format="1">
  <advance width="480"/>
  <unicode hex="00AB"/>
  <outline>
    <contour>
      <point x="467" y="0" type="line"/>
      <point x="284" y="0" type="line"/>
      <point x="227" y="262" type="line"/>
      <point x="284" y="525" type="line"/>
      <point x="467" y="525" type="line"/>
      <point x="410" y="262" type="line"/>
    </contour>
    <contour>
      <point x="248" y="0" type="line"/>
      <point x="65" y="0" type="line"/>
      <point x="8" y="262" type="line"/>
      <point x="65" y="525" type="line"/>
      <point x="248" y="525" type="line"/>
      <point x="191" y="262" type="line"/>
    </contour>
  </outline>
</glyph>
<glyph name="degree" format="1">
  <advance width="308"/>
  <unicode hex="00B0"/>
  <outline>
    <contour>
      <point x="297" y="530" type="curve" smooth="yes"/>
      <point x="297" y="422"/>
      <point x="256" y="347"/>
      <point x="154" y="347" type="curve" smooth="yes"/>
      <point x="53" y="347"/>
      <point x="11" y="422"/>
      <point x="11" y="530" type="curve" smooth="yes"/>
      <point x="11" y="637"/>
      <point x="53" y="711"/>
      <point x="154" y="711" type="curve" smooth="yes"/>
      <point x="256" y="711"/>
      <point x="297" y="637"/>
    </contour>
    <contour>
      <point x="181" y="530" type="curve" smooth="yes"/>
      <point x="181" y="579"/>
      <point x="174" y="606"/>
      <point x="154" y="606" type="curve" smooth="yes"/>
      <point x="133" y="606"/>
      <point x="127" y="583"/>
      <point x="127" y="530" type="curve" smooth="yes"/>
      <point x="127" y="476"/>
      <point x="133" y="450"/>
      <point x="154" y="450" type="curve" smooth="yes"/>
      <point x="175" y="450"/>
      <point x="181" y="476"/>
    </contour>
  </outline>
</glyph>
<glyph name="acute" format="1">
  <advance width="326"/>
  <unicode hex="00B4"/>
  <outline>
    <contour>
      <point x="348" y="715" type="line"/>
      <point x="205" y="555" type="line"/>
      <point x="75" y="555" type="line"/>
      <point x="129" y="715" type="line"/>
    </contour>
  </outline>
</glyph>
<glyph name="paragraph" format="1">
  <advance width="470"/>
  <unicode hex="00B6"/>
  <outline>
    <contour>
      <point x="450" y="-185" type="line"/>
      <point x="321" y="-185" type="line"/>
      <point x="321" y="601" type="line"/>
      <point x="299" y="601" type="line"/>
      <point x="299" y="-185" type="line"/>
      <point x="170" y="-185" type="line"/>
      <point x="170" y="305" type="line"/>
      <point x="82" y="318"/>
      <point x="15" y="372"/>
      <point x="15" y="503" type="curve" smooth="yes"/>
      <point x="15" y="635"/>
      <point x="104" y="700"/>
      <point x="208" y="700" type="curve" smooth="yes"/>
      <point x="450" y="700" type="line"/>
    </contour>
  </outline>
</glyph>
<glyph name="periodcentered" format="1">
  <advance width="237"/>
  <unicode hex="00B7"/>
  <outline>
    <contour>
      <point x="222" y="367" type="curve" smooth="yes"/>
      <point x="222" y="305"/>
      <point x="183" y="266"/>
      <point x="119" y="266" type="curve" smooth="yes"/>
      <point x="55" y="266"/>
      <point x="16" y="305"/>
      <point x="16" y="367" type="curve" smooth="yes"/>
      <point x="16" y="431"/>
      <point x="55" y="468"/>
      <point x="119" y="468" type="curve" smooth="yes"/>
      <point x="183" y="468"/>
      <point x="222" y="431"/>
    </contour>
  </outline>
</glyph>
<glyph name="cedilla" format="1">
  <advance width="330"/>
  <unicode hex="00B8"/>
  <outline>
    <contour>
      <point x="272" y="-100" type="curve" smooth="yes"/>
      <point x="272" y="-159"/>
      <point x="227" y="-179"/>
      <point x="172" y="-179" type="curve" smooth="yes"/>
      <point x="130" y="-179"/>
      <point x="84" y="-166"/>
      <point x="56" y="-149" type="curve"/>
      <point x="73" y="-98" type="line"/>
      <point x="110" y="-115"/>
      <point x="129" y="-121"/>
      <point x="155" y="-121" type="curve" smooth="yes"/>
      <point x="173" y="-121"/>
      <point x="182" y="-113"/>
      <point x="182" y="-99" type="curve" smooth="yes"/>
      <point x="182" y="-87"/>
      <point x="176" y="-81"/>
      <point x="169" y="-81" type="curve" smooth="yes"/>
      <point x="161" y="-81"/>
      <point x="154" y="-86"/>
      <point x="150" y="-95" type="curve"/>
      <point x="102" y="-77" type="line"/>
      <point x="128" y="13" type="line"/>
      <point x="181" y="13" type="line"/>
      <point x="169" y="-34" type="line"/>
      <point x="179" y="-29"/>
      <point x="191" y="-26"/>
      <point x="205" y="-26" type="curve" smooth="yes"/>
      <point x="237" y="-26"/>
      <point x="272" y="-44"/>
    </contour>
  </outline>
</glyph>
<glyph name="ordmasculine" format="1">
  <advance width="338"/>
  <unicode hex="00BA"/>
  <outline>
    <contour>
      <point x="326" y="494" type="curve" smooth="yes"/>
      <point x="326" y="328"/>
      <point x="264" y="274"/>
      <point x="167" y="274" type="curve" smooth="yes"/>
      <point x="78" y="274"/>
      <point x="12" y="326"/>
      <point x="12" y="490" type="curve" smooth="yes"/>
      <point x="12" y="650"/>
      <point x="70" y="711"/>
      <point x="171" y="711" type="curve" smooth="yes"/>
      <point x="263" y="711"/>
      <point x="326" y="657"/>
    </contour>
    <contour>
      <point x="180" y="491" type="curve" smooth="yes"/>
      <point x="180" y="586"/>
      <point x="179" y="616"/>
      <point x="169" y="616" type="curve" smooth="yes"/>
      <point x="159" y="616"/>
      <point x="159" y="584"/>
      <point x="159" y="494" type="curve" smooth="yes"/>
      <point x="159" y="402"/>
      <point x="159" y="370"/>
      <point x="170" y="370" type="curve" smooth="yes"/>
      <point x="179" y="370"/>
      <point x="180" y="401"/>
    </contour>
  </outline>
</glyph>
<glyph name="guillemotright" format="1">
  <advance width="480"/>
  <unicode hex="00BB"/>
  <outline>
    <contour>
      <point x="232" y="525" type="line"/>
      <point x="415" y="525" type="line"/>
      <point x="472" y="263" type="line"/>
      <point x="415" y="0" type="line"/>
      <point x="232" y="0" type="line"/>
      <point x="289" y="263" type="line"/>
    </contour>
    <contour>
      <point x="13" y="525" type="line"/>
      <point x="196" y="525" type="line"/>
      <point x="253" y="263" type="line"/>
      <point x="196" y="0" type="line"/>
      <point x="13" y="0" type="line"/>
      <point x="70" y="263" type="line"/>
    </contour>
  </outline>
</glyph>
<glyph name="questiondown" format="1">
  <advance width="354"/>
  <unicode hex="00BF"/>
  <outline>
    <contour>
      <point x="95" y="612" type="curve" smooth="yes"/>
      <point x="95" y="672"/>
      <point x="132" y="711"/>
      <point x="189" y="711" type="curve" smooth="yes"/>
      <point x="246" y="711"/>
      <point x="283" y="672"/>
      <point x="283" y="612" type="curve" smooth="yes"/>
      <point x="283" y="552"/>
      <point x="246" y="513"/>
      <point x="189" y="513" type="curve" smooth="yes"/>
      <point x="132" y="513"/>
      <point x="95" y="552"/>
    </contour>
    <contour>
      <point x="4" y="155" type="curve" smooth="yes"/>
      <point x="4" y="228"/>
      <point x="24" y="263"/>
      <point x="68" y="332" type="curve" smooth="yes"/>
      <point x="109" y="396"/>
      <point x="116" y="425"/>
      <point x="116" y="486" type="curve"/>
      <point x="263" y="486" type="line"/>
      <point x="263" y="382"/>
      <point x="254" y="341"/>
      <point x="214" y="275" type="curve" smooth="yes"/>
      <point x="182" y="223"/>
      <point x="170" y="194"/>
      <point x="170" y="168" type="curve" smooth="yes"/>
      <point x="170" y="153"/>
      <point x="172" y="144"/>
      <point x="182" y="144" type="curve" smooth="yes"/>
      <point x="191" y="144"/>
      <point x="198" y="158"/>
      <point x="200" y="221" type="curve"/>
      <point x="352" y="196" type="line"/>
      <point x="346" y="53"/>
      <point x="283" y="-11"/>
      <point x="175" y="-11" type="curve" smooth="yes"/>
      <point x="60" y="-11"/>
      <point x="4" y="55"/>
    </contour>
  </outline>
</glyph>
<glyph name="Aring" format="1">
  <advance width="436"/>
  <unicode hex="00C5"/>
  <outline>
    <contour>
      <point x="99" y="684" type="line"/>
      <point x="85" y="705"/>
      <point x="78" y="730"/>
      <point x="78" y="757" type="curve" smooth="yes"/>
      <point x="78" y="833"/>
      <point x="137" y="895"/>
      <point x="218" y="895" type="curve" smooth="yes"/>
      <point x="299" y="895"/>
      <point x="358" y="833"/>
      <point x="358" y="757" type="curve" smooth="yes"/>
      <point x="358" y="730"/>
      <point x="351" y="705"/>
      <point x="337" y="684" type="curve"/>
      <point x="438" y="0" type="line"/>
      <point x="261" y="0" type="line"/>
      <point x="250" y="106" type="line"/>
      <point x="180" y="106" type="line"/>
      <point x="169" y="0" type="line"/>
      <point x="-2" y="0" type="line"/>
    </contour>
    <contour>
      <point x="218" y="812" type="curve" smooth="yes"/>
      <point x="189" y="812"/>
      <point x="172" y="786"/>
      <point x="172" y="757" type="curve" smooth="yes"/>
      <point x="172" y="728"/>
      <point x="189" y="704"/>
      <point x="218" y="704" type="curve" smooth="yes"/>
      <point x="247" y="704"/>
      <point x="264" y="728"/>
      <point x="264" y="757" type="curve" smooth="yes"/>
      <point x="264" y="786"/>
      <point x="247" y="812"/>
    </contour>
    <contour>
      <point x="235" y="246" type="line"/>
      <point x="232" y="282" type="line" smooth="yes"/>
      <point x="226" y="351"/>
      <point x="222" y="392"/>
      <point x="215" y="527" type="curve"/>
      <point x="208" y="392"/>
      <point x="204" y="351"/>
      <point x="198" y="282" type="curve" smooth="yes"/>
      <point x="195" y="246" type="line"/>
    </contour>
  </outline>
</glyph>
<glyph name="AE" format="1">
  <advance width="584"/>
  <unicode hex="00C6"/>
  <outline>
    <contour>
      <point x="573" y="541" type="line"/>
      <point x="431" y="541" type="line"/>
      <point x="431" y="436" type="line"/>
      <point x="548" y="436" type="line"/>
      <point x="548" y="277" type="line"/>
      <point x="431" y="277" type="line"/>
      <point x="431" y="159" type="line"/>
      <point x="568" y="159" type="line"/>
      <point x="568" y="0" type="line"/>
      <point x="250" y="0" type="line"/>
      <point x="250" y="106" type="line"/>
      <point x="187" y="106" type="line"/>
      <point x="169" y="0" type="line"/>
      <point x="-2" y="0" type="line"/>
      <point x="144" y="700" type="line"/>
      <point x="573" y="700" type="line"/>
    </contour>
    <contour>
      <point x="252" y="560" type="curve"/>
      <point x="245" y="505"/>
      <point x="229" y="384"/>
      <point x="215" y="282" type="curve" smooth="yes"/>
      <point x="210" y="246" type="line"/>
      <point x="250" y="246" type="line"/>
      <point x="250" y="419" type="line" smooth="yes"/>
      <point x="250" y="462"/>
      <point x="250" y="523"/>
    </contour>
  </outline>
</glyph>
<glyph name="Ccedilla" format="1">
  <advance width="400"/>
  <unicode hex="00C7"/>
  <outline>
    <contour>
      <point x="157" y="-6" type="line"/>
      <point x="61" y="15"/>
      <point x="11" y="105"/>
      <point x="11" y="350" type="curve" smooth="yes"/>
      <point x="11" y="636"/>
      <point x="79" y="711"/>
      <point x="209" y="711" type="curve" smooth="yes"/>
      <point x="338" y="711"/>
      <point x="383" y="615"/>
      <point x="393" y="456" type="curve"/>
      <point x="224" y="433" type="line"/>
      <point x="222" y="542"/>
      <point x="220" y="556"/>
      <point x="209" y="556" type="curve" smooth="yes"/>
      <point x="198" y="556"/>
      <point x="194" y="547"/>
      <point x="194" y="350" type="curve" smooth="yes"/>
      <point x="194" y="153"/>
      <point x="198" y="144"/>
      <point x="209" y="144" type="curve" smooth="yes"/>
      <point x="219" y="144"/>
      <point x="221" y="150"/>
      <point x="227" y="268" type="curve"/>
      <point x="395" y="241" type="line"/>
      <point x="379" y="81"/>
      <point x="334" y="-11"/>
      <point x="210" y="-11" type="curve"/>
      <point x="204" y="-34" type="line"/>
      <point x="214" y="-29"/>
      <point x="226" y="-26"/>
      <point x="240" y="-26" type="curve" smooth="yes"/>
      <point x="272" y="-26"/>
      <point x="307" y="-44"/>
      <point x="307" y="-100" type="curve" smooth="yes"/>
      <point x="307" y="-159"/>
      <point x="262" y="-179"/>
      <point x="207" y="-179" type="curve" smooth="yes"/>
      <point x="165" y="-179"/>
      <point x="119" y="-166"/>
      <point x="91" y="-149" type="curve"/>
      <point x="108" y="-98" type="line"/>
      <point x="145" y="-115"/>
      <point x="164" y="-121"/>
      <point x="190" y="-121" type="curve" smooth="yes"/>
      <point x="208" y="-121"/>
      <point x="217" y="-113"/>
      <point x="217" y="-99" type="curve" smooth="yes"/>
      <point x="217" y="-87"/>
      <point x="211" y="-81"/>
      <point x="204" y="-81" type="curve" smooth="yes"/>
      <point x="196" y="-81"/>
      <point x="189" y="-86"/>
      <point x="185" y="-95" type="curve"/>
      <point x="137" y="-77" type="line"/>
    </contour>
  </outline>
</glyph>
<glyph name="Eth" format="1">
  <advance width="435"/>
  <unicode hex="00D0"/>
  <outline>
    <contour>
      <point x="31" y="283" type="line"/>
      <point x="8" y="283" type="line"/>
      <point x="8" y="435" type="line"/>
      <point x="31" y="435" type="line"/>
      <point x="31" y="700" type="line"/>
      <point x="221" y="700" type="line" smooth="yes"/>
      <point x="373" y="700"/>
      <point x="425" y="592"/>
      <point x="425" y="350" type="curve" smooth="yes"/>
      <point x="425" y="108"/>
      <point x="373" y="0"/>
      <point x="221" y="0" type="curve" smooth="yes"/>
      <point x="31" y="0" type="line"/>
    </contour>
    <contour>
      <point x="201" y="435" type="line"/>
      <point x="227" y="435" type="line"/>
      <point x="227" y="283" type="line"/>
      <point x="201" y="283" type="line"/>
      <point x="201" y="156" type="line"/>
      <point x="220" y="156" type="line" smooth="yes"/>
      <point x="237" y="156"/>
      <point x="242" y="166"/>
      <point x="242" y="350" type="curve" smooth="yes"/>
      <point x="242" y="534"/>
      <point x="237" y="544"/>
      <point x="220" y="544" type="curve" smooth="yes"/>
      <point x="201" y="544" type="line"/>
    </contour>
  </outline>
</glyph>
<glyph name="Oslash" format="1">
  <advance width="418"/>
  <unicode hex="00D8"/>
  <outline>
    <contour>
      <point x="257" y="707" type="curve"/>
      <point x="272" y="750" type="line"/>
      <point x="420" y="750" type="line"/>
      <point x="370" y="611" type="line"/>
      <point x="395" y="556"/>
      <point x="407" y="472"/>
      <point x="407" y="350" type="curve" smooth="yes"/>
      <point x="407" y="64"/>
      <point x="339" y="-11"/>
      <point x="209" y="-11" type="curve" smooth="yes"/>
      <point x="192" y="-11"/>
      <point x="176" y="-10"/>
      <point x="161" y="-7" type="curve"/>
      <point x="146" y="-50" type="line"/>
      <point x="-2" y="-50" type="line"/>
      <point x="-2" y="-50"/>
      <point x="48" y="89"/>
      <point x="47" y="89" type="curve"/>
      <point x="23" y="144"/>
      <point x="11" y="228"/>
      <point x="11" y="350" type="curve" smooth="yes"/>
      <point x="11" y="636"/>
      <point x="79" y="711"/>
      <point x="209" y="711" type="curve" smooth="yes"/>
      <point x="226" y="711"/>
      <point x="242" y="710"/>
    </contour>
    <contour>
      <point x="224" y="350" type="curve" smooth="yes"/>
      <point x="224" y="547"/>
      <point x="220" y="556"/>
      <point x="209" y="556" type="curve" smooth="yes"/>
      <point x="198" y="556"/>
      <point x="194" y="547"/>
      <point x="194" y="350" type="curve" smooth="yes"/>
      <point x="194" y="153"/>
      <point x="198" y="144"/>
      <point x="209" y="144" type="curve" smooth="yes"/>
      <point x="220" y="144"/>
      <point x="224" y="153"/>
    </contour>
  </outline>
</glyph>
<glyph name="Thorn" format="1">
  <advance width="402"/>
  <unicode hex="00DE"/>
  <outline>
    <contour>
      <point x="16" y="700" type="line"/>
      <point x="196" y="700" type="line"/>
      <point x="196" y="588" type="line"/>
      <point x="204" y="588" type="line" smooth="yes"/>
      <point x="325" y="588"/>
      <point x="399" y="532"/>
      <point x="399" y="360" type="curve" smooth="yes"/>
      <point x="399" y="188"/>
      <point x="325" y="132"/>
      <point x="204" y="132" type="curve" smooth="yes"/>
      <point x="196" y="132" type="line"/>
      <point x="196" y="0" type="line"/>
      <point x="16" y="0" type="line"/>
    </contour>
    <contour>
      <point x="222" y="356" type="curve" smooth="yes"/>
      <point x="222" y="433"/>
      <point x="216" y="444"/>
      <point x="194" y="444" type="curve" smooth="yes"/>
      <point x="191" y="444" type="line"/>
      <point x="191" y="268" type="line"/>
      <point x="194" y="268" type="line" smooth="yes"/>
      <point x="216" y="268"/>
      <point x="222" y="279"/>
    </contour>
  </outline>
</glyph>
<glyph name="germandbls" format="1">
  <advance width="418"/>
  <unicode hex="00DF"/>
  <outline>
    <contour>
      <point x="408" y="231" type="curve" smooth="yes"/>
      <point x="408" y="78"/>
      <point x="369" y="0"/>
      <point x="231" y="0" type="curve" smooth="yes"/>
      <point x="211" y="0" type="line"/>
      <point x="211" y="133" type="line"/>
      <point x="233" y="137"/>
      <point x="238" y="142"/>
      <point x="238" y="231" type="curve" smooth="yes"/>
      <point x="238" y="318"/>
      <point x="231" y="325"/>
      <point x="211" y="329" type="curve"/>
      <point x="211" y="457" type="line"/>
      <point x="225" y="460"/>
      <point x="229" y="469"/>
      <point x="229" y="536" type="curve" smooth="yes"/>
      <point x="229" y="591"/>
      <point x="220" y="598"/>
      <point x="207" y="598" type="curve" smooth="yes"/>
      <point x="193" y="598"/>
      <point x="186" y="590"/>
      <point x="186" y="536" type="curve" smooth="yes"/>
      <point x="186" y="-141" type="line"/>
      <point x="14" y="-193" type="line"/>
      <point x="14" y="525" type="line" smooth="yes"/>
      <point x="14" y="697"/>
      <point x="114" y="726"/>
      <point x="214" y="726" type="curve" smooth="yes"/>
      <point x="304" y="726"/>
      <point x="379" y="680"/>
      <point x="379" y="549" type="curve" smooth="yes"/>
      <point x="379" y="444"/>
      <point x="339" y="417"/>
      <point x="314" y="404" type="curve"/>
      <point x="345" y="398"/>
      <point x="408" y="371"/>
    </contour>
  </outline>
</glyph>
<glyph name="ae" format="1">
  <advance width="549"/>
  <unicode hex="00E6"/>
  <outline>
    <contour>
      <point x="232" y="58" type="curve"/>
      <point x="216" y="28"/>
      <point x="169" y="-11"/>
      <point x="114" y="-11" type="curve" smooth="yes"/>
      <point x="50" y="-11"/>
      <point x="7" y="38"/>
      <point x="7" y="162" type="curve" smooth="yes"/>
      <point x="7" y="290"/>
      <point x="49" y="343"/>
      <point x="128" y="343" type="curve" smooth="yes"/>
      <point x="155" y="343"/>
      <point x="174" y="337"/>
      <point x="189" y="329" type="curve"/>
      <point x="189" y="353" type="line" smooth="yes"/>
      <point x="189" y="382"/>
      <point x="182" y="394"/>
      <point x="157" y="394" type="curve" smooth="yes"/>
      <point x="130" y="394"/>
      <point x="101" y="383"/>
      <point x="70" y="363" type="curve"/>
      <point x="23" y="482" type="line"/>
      <point x="72" y="515"/>
      <point x="136" y="536"/>
      <point x="210" y="536" type="curve" smooth="yes"/>
      <point x="247" y="536"/>
      <point x="273" y="527"/>
      <point x="293" y="511" type="curve"/>
      <point x="314" y="527"/>
      <point x="339" y="536"/>
      <point x="368" y="536" type="curve" smooth="yes"/>
      <point x="468" y="536"/>
      <point x="542" y="479"/>
      <point x="542" y="246" type="curve" smooth="yes"/>
      <point x="542" y="239"/>
      <point x="542" y="224"/>
      <point x="542" y="217" type="curve"/>
      <point x="357" y="217" type="line"/>
      <point x="358" y="132"/>
      <point x="362" y="119"/>
      <point x="374" y="119" type="curve" smooth="yes"/>
      <point x="385" y="119"/>
      <point x="389" y="133"/>
      <point x="392" y="193" type="curve"/>
      <point x="541" y="160" type="line"/>
      <point x="526" y="57"/>
      <point x="478" y="-11"/>
      <point x="373" y="-11" type="curve" smooth="yes"/>
      <point x="308" y="-11"/>
      <point x="262" y="13"/>
    </contour>
    <contour>
      <point x="383" y="317" type="line"/>
      <point x="383" y="400"/>
      <point x="379" y="412"/>
      <point x="368" y="412" type="curve" smooth="yes"/>
      <point x="360" y="412"/>
      <point x="354" y="404"/>
      <point x="353" y="317" type="curve"/>
    </contour>
    <contour>
      <point x="190" y="228" type="curve"/>
      <point x="186" y="230"/>
      <point x="183" y="231"/>
      <point x="181" y="231" type="curve" smooth="yes"/>
      <point x="167" y="231"/>
      <point x="163" y="224"/>
      <point x="163" y="169" type="curve" smooth="yes"/>
      <point x="163" y="123"/>
      <point x="167" y="115"/>
      <point x="181" y="115" type="curve" smooth="yes"/>
      <point x="185" y="115"/>
      <point x="194" y="119"/>
      <point x="203" y="126" type="curve"/>
      <point x="195" y="156"/>
      <point x="191" y="190"/>
    </contour>
  </outline>
</glyph>
<glyph name="ccedilla" format="1">
  <advance width="358"/>
  <unicode hex="00E7"/>
  <outline>
    <contour>
      <point x="137" y="-6" type="line"/>
      <point x="62" y="13"/>
      <point x="9" y="84"/>
      <point x="9" y="260" type="curve" smooth="yes"/>
      <point x="9" y="465"/>
      <point x="77" y="536"/>
      <point x="184" y="536" type="curve" smooth="yes"/>
      <point x="295" y="536"/>
      <point x="344" y="457"/>
      <point x="352" y="339" type="curve"/>
      <point x="205" y="312" type="line"/>
      <point x="205" y="390"/>
      <point x="201" y="404"/>
      <point x="193" y="404" type="curve" smooth="yes"/>
      <point x="181" y="404"/>
      <point x="180" y="377"/>
      <point x="180" y="264" type="curve" smooth="yes"/>
      <point x="180" y="149"/>
      <point x="181" y="122"/>
      <point x="194" y="122" type="curve" smooth="yes"/>
      <point x="203" y="122"/>
      <point x="206" y="136"/>
      <point x="206" y="221" type="curve"/>
      <point x="353" y="187" type="line"/>
      <point x="342" y="52"/>
      <point x="287" y="-9"/>
      <point x="189" y="-11" type="curve"/>
      <point x="183" y="-34" type="line"/>
      <point x="193" y="-29"/>
      <point x="205" y="-26"/>
      <point x="219" y="-26" type="curve" smooth="yes"/>
      <point x="251" y="-26"/>
      <point x="286" y="-44"/>
      <point x="286" y="-100" type="curve" smooth="yes"/>
      <point x="286" y="-159"/>
      <point x="241" y="-179"/>
      <point x="186" y="-179" type="curve" smooth="yes"/>
      <point x="144" y="-179"/>
      <point x="98" y="-166"/>
      <point x="70" y="-149" type="curve"/>
      <point x="87" y="-98" type="line"/>
      <point x="124" y="-115"/>
      <point x="143" y="-121"/>
      <point x="169" y="-121" type="curve" smooth="yes"/>
      <point x="187" y="-121"/>
      <point x="196" y="-113"/>
      <point x="196" y="-99" type="curve" smooth="yes"/>
      <point x="196" y="-87"/>
      <point x="190" y="-81"/>
      <point x="183" y="-81" type="curve" smooth="yes"/>
      <point x="175" y="-81"/>
      <point x="168" y="-86"/>
      <point x="164" y="-95" type="curve"/>
      <point x="116" y="-77" type="line"/>
    </contour>
  </outline>
</glyph>
<glyph name="eth" format="1">
  <advance width="386"/>
  <unicode hex="00F0"/>
  <outline>
    <contour>
      <point x="196" y="512" type="curve"/>
      <point x="196" y="513"/>
      <point x="172" y="486"/>
      <point x="172" y="486" type="curve"/>
      <point x="110" y="539" type="line"/>
      <point x="138" y="570" type="line"/>
      <point x="123" y="578"/>
      <point x="106" y="584"/>
      <point x="88" y="587" type="curve"/>
      <point x="88" y="713" type="line"/>
      <point x="146" y="710"/>
      <point x="193" y="695"/>
      <point x="230" y="671" type="curve"/>
      <point x="260" y="704" type="line"/>
      <point x="322" y="651" type="line"/>
      <point x="322" y="651"/>
      <point x="291" y="617"/>
      <point x="290" y="617" type="curve"/>
      <point x="361" y="528"/>
      <point x="377" y="392"/>
      <point x="377" y="264" type="curve" smooth="yes"/>
      <point x="377" y="57"/>
      <point x="305" y="-11"/>
      <point x="191" y="-11" type="curve" smooth="yes"/>
      <point x="84" y="-11"/>
      <point x="9" y="54"/>
      <point x="9" y="260" type="curve" smooth="yes"/>
      <point x="9" y="385"/>
      <point x="44" y="476"/>
      <point x="117" y="476" type="curve" smooth="yes"/>
      <point x="166" y="476"/>
      <point x="205" y="450"/>
      <point x="226" y="412" type="curve"/>
      <point x="223" y="451"/>
      <point x="213" y="485"/>
    </contour>
    <contour>
      <point x="207" y="261" type="curve" smooth="yes"/>
      <point x="207" y="327"/>
      <point x="205" y="344"/>
      <point x="193" y="344" type="curve" smooth="yes"/>
      <point x="181" y="344"/>
      <point x="180" y="326"/>
      <point x="180" y="264" type="curve" smooth="yes"/>
      <point x="180" y="149"/>
      <point x="181" y="122"/>
      <point x="194" y="122" type="curve" smooth="yes"/>
      <point x="206" y="122"/>
      <point x="207" y="148"/>
    </contour>
  </outline>
</glyph>
<glyph name="oslash" format="1">
  <advance width="386"/>
  <unicode hex="00F8"/>
  <outline>
    <contour>
      <point x="247" y="530" type="curve"/>
      <point x="267" y="575" type="line"/>
      <point x="400" y="575" type="line"/>
      <point x="345" y="448" type="line"/>
      <point x="365" y="406"/>
      <point x="377" y="346"/>
      <point x="377" y="264" type="curve" smooth="yes"/>
      <point x="377" y="57"/>
      <point x="305" y="-11"/>
      <point x="191" y="-11" type="curve" smooth="yes"/>
      <point x="173" y="-11"/>
      <point x="155" y="-9"/>
      <point x="139" y="-5" type="curve"/>
      <point x="119" y="-50" type="line"/>
      <point x="-14" y="-50" type="line"/>
      <point x="41" y="77" type="line"/>
      <point x="21" y="120"/>
      <point x="9" y="179"/>
      <point x="9" y="260" type="curve" smooth="yes"/>
      <point x="9" y="459"/>
      <point x="75" y="536"/>
      <point x="195" y="536" type="curve" smooth="yes"/>
      <point x="214" y="536"/>
      <point x="231" y="534"/>
    </contour>
    <contour>
      <point x="207" y="261" type="curve" smooth="yes"/>
      <point x="207" y="380"/>
      <point x="205" y="404"/>
      <point x="193" y="404" type="curve" smooth="yes"/>
      <point x="181" y="404"/>
      <point x="180" y="377"/>
      <point x="180" y="264" type="curve" smooth="yes"/>
      <point x="180" y="149"/>
      <point x="181" y="122"/>
      <point x="194" y="122" type="curve" smooth="yes"/>
      <point x="206" y="122"/>
      <point x="207" y="148"/>
    </contour>
  </outline>
</glyph>
<glyph name="Lslash" format="1">
  <advance width="330"/>
  <unicode hex="0141"/>
  <outline>
    <contour>
      <point x="212" y="329" type="line"/>
      <point x="212" y="155" type="line"/>
      <point x="321" y="155" type="line"/>
      <point x="321" y="0" type="line"/>
      <point x="32" y="0" type="line"/>
      <point x="32" y="224" type="line"/>
      <point x="9" y="211" type="line"/>
      <point x="9" y="387" type="line"/>
      <point x="32" y="400" type="line"/>
      <point x="32" y="700" type="line"/>
      <point x="212" y="700" type="line"/>
      <point x="212" y="505" type="line"/>
      <point x="241" y="522" type="line"/>
      <point x="241" y="346" type="line"/>
    </contour>
  </outline>
</glyph>
<glyph name="lslash" format="1">
  <advance width="234"/>
  <unicode hex="0142"/>
  <outline>
    <contour>
      <point x="202" y="319" type="line"/>
      <point x="202" y="0" type="line"/>
      <point x="32" y="0" type="line"/>
      <point x="32" y="224" type="line"/>
      <point x="9" y="211" type="line"/>
      <point x="9" y="387" type="line"/>
      <point x="32" y="400" type="line"/>
      <point x="32" y="681" type="line"/>
      <point x="202" y="729" type="line"/>
      <point x="202" y="495" type="line"/>
      <point x="225" y="508" type="line"/>
      <point x="225" y="332" type="line"/>
    </contour>
  </outline>
</glyph>
<glyph name="OE" format="1">
  <advance width="654"/>
  <unicode hex="0152"/>
  <outline>
    <contour>
      <point x="339" y="633" type="curve"/>
      <point x="339" y="700" type="line"/>
      <point x="642" y="700" type="line"/>
      <point x="642" y="545" type="line"/>
      <point x="509" y="545" type="line"/>
      <point x="509" y="446" type="line"/>
      <point x="617" y="446" type="line"/>
      <point x="617" y="293" type="line"/>
      <point x="509" y="293" type="line"/>
      <point x="509" y="155" type="line"/>
      <point x="643" y="155" type="line"/>
      <point x="643" y="0" type="line"/>
      <point x="339" y="0" type="line"/>
      <point x="339" y="67" type="line"/>
      <point x="313" y="13"/>
      <point x="272" y="-11"/>
      <point x="209" y="-11" type="curve" smooth="yes"/>
      <point x="79" y="-11"/>
      <point x="11" y="64"/>
      <point x="11" y="350" type="curve" smooth="yes"/>
      <point x="11" y="636"/>
      <point x="79" y="711"/>
      <point x="209" y="711" type="curve" smooth="yes"/>
      <point x="272" y="711"/>
      <point x="313" y="687"/>
    </contour>
    <contour>
      <point x="224" y="350" type="curve" smooth="yes"/>
      <point x="224" y="547"/>
      <point x="220" y="556"/>
      <point x="209" y="556" type="curve" smooth="yes"/>
      <point x="198" y="556"/>
      <point x="194" y="547"/>
      <point x="194" y="350" type="curve" smooth="yes"/>
      <point x="194" y="153"/>
      <point x="198" y="144"/>
      <point x="209" y="144" type="curve" smooth="yes"/>
      <point x="220" y="144"/>
      <point x="224" y="153"/>
    </contour>
  </outline>
</glyph>
<glyph name="oe" format="1">
  <advance width="567"/>
  <unicode hex="0153"/>
  <outline>
    <contour>
      <point x="291" y="27" type="curve"/>
      <point x="265" y="2"/>
      <point x="232" y="-11"/>
      <point x="191" y="-11" type="curve" smooth="yes"/>
      <point x="84" y="-11"/>
      <point x="9" y="54"/>
      <point x="9" y="260" type="curve" smooth="yes"/>
      <point x="9" y="459"/>
      <point x="75" y="536"/>
      <point x="195" y="536" type="curve" smooth="yes"/>
      <point x="235" y="536"/>
      <point x="267" y="524"/>
      <point x="292" y="500" type="curve"/>
      <point x="316" y="524"/>
      <point x="348" y="536"/>
      <point x="387" y="536" type="curve" smooth="yes"/>
      <point x="487" y="536"/>
      <point x="561" y="479"/>
      <point x="561" y="246" type="curve" smooth="yes"/>
      <point x="561" y="239"/>
      <point x="561" y="224"/>
      <point x="561" y="217" type="curve"/>
      <point x="376" y="217" type="line"/>
      <point x="377" y="132"/>
      <point x="381" y="119"/>
      <point x="393" y="119" type="curve" smooth="yes"/>
      <point x="404" y="119"/>
      <point x="408" y="133"/>
      <point x="411" y="193" type="curve"/>
      <point x="560" y="160" type="line"/>
      <point x="545" y="57"/>
      <point x="497" y="-11"/>
      <point x="392" y="-11" type="curve" smooth="yes"/>
      <point x="348" y="-11"/>
      <point x="315" y="3"/>
    </contour>
    <contour>
      <point x="402" y="317" type="line"/>
      <point x="402" y="400"/>
      <point x="398" y="412"/>
      <point x="387" y="412" type="curve" smooth="yes"/>
      <point x="379" y="412"/>
      <point x="373" y="404"/>
      <point x="372" y="317" type="curve"/>
    </contour>
    <contour>
      <point x="207" y="261" type="curve" smooth="yes"/>
      <point x="207" y="380"/>
      <point x="205" y="404"/>
      <point x="193" y="404" type="curve" smooth="yes"/>
      <point x="181" y="404"/>
      <point x="180" y="377"/>
      <point x="180" y="264" type="curve" smooth="yes"/>
      <point x="180" y="149"/>
      <point x="181" y="122"/>
      <point x="194" y="122" type="curve" smooth="yes"/>
      <point x="206" y="122"/>
      <point x="207" y="148"/>
    </contour>
  </outline>
</glyph>
<glyph name="florin" format="1">
  <advance width="302"/>
  <unicode hex="0192"/>
  <outline>
    <contour>
      <point x="292" y="581" type="line"/>
      <point x="244" y="592"/>
      <point x="216" y="590"/>
      <point x="216" y="563" type="curve" smooth="yes"/>
      <point x="216" y="525" type="line"/>
      <point x="272" y="525" type="line"/>
      <point x="272" y="398" type="line"/>
      <point x="219" y="398" type="line"/>
      <point x="219" y="-144" type="line"/>
      <point x="44" y="-193" type="line"/>
      <point x="44" y="398" type="line"/>
      <point x="9" y="398" type="line"/>
      <point x="9" y="525" type="line"/>
      <point x="44" y="525" type="line"/>
      <point x="44" y="575" type="line" smooth="yes"/>
      <point x="44" y="669"/>
      <point x="85" y="711"/>
      <point x="173" y="711" type="curve" smooth="yes"/>
      <point x="233" y="711"/>
      <point x="263" y="706"/>
      <point x="292" y="698" type="curve"/>
    </contour>
  </outline>
</glyph>
<glyph name="circumflex" format="1">
  <advance width="330"/>
  <unicode hex="02C6"/>
  <outline>
    <contour>
      <point x="269" y="715" type="line"/>
      <point x="328" y="555" type="line"/>
      <point x="186" y="555" type="line"/>
      <point x="162" y="611" type="line"/>
      <point x="139" y="555" type="line"/>
      <point x="3" y="555" type="line"/>
      <point x="62" y="715" type="line"/>
    </contour>
  </outline>
</glyph>
<glyph name="caron" format="1">
  <advance width="330"/>
  <unicode hex="02C7"/>
  <outline>
    <contour>
      <point x="61" y="555" type="line"/>
      <point x="2" y="715" type="line"/>
      <point x="144" y="715" type="line"/>
      <point x="168" y="659" type="line"/>
      <point x="191" y="715" type="line"/>
      <point x="327" y="715" type="line"/>
      <point x="268" y="555" type="line"/>
    </contour>
  </outline>
</glyph>
<glyph name="breve" format="1">
  <advance width="330"/>
  <unicode hex="02D8"/>
  <outline>
    <contour>
      <point x="321" y="699" type="line"/>
      <point x="321" y="579"/>
      <point x="274" y="545"/>
      <point x="166" y="545" type="curve" smooth="yes"/>
      <point x="58" y="545"/>
      <point x="11" y="579"/>
      <point x="11" y="699" type="curve"/>
      <point x="146" y="699" type="line"/>
      <point x="146" y="647"/>
      <point x="153" y="632"/>
      <point x="167" y="632" type="curve" smooth="yes"/>
      <point x="181" y="632"/>
      <point x="188" y="647"/>
      <point x="188" y="699" type="curve"/>
    </contour>
  </outline>
</glyph>
<glyph name="dotaccent" format="1">
  <advance width="330"/>
  <unicode hex="02D9"/>
  <outline>
    <contour>
      <point x="254" y="636" type="curve" smooth="yes"/>
      <point x="254" y="590"/>
      <point x="214" y="551"/>
      <point x="164" y="551" type="curve" smooth="yes"/>
      <point x="119" y="551"/>
      <point x="78" y="590"/>
      <point x="78" y="636" type="curve" smooth="yes"/>
      <point x="78" y="686"/>
      <point x="119" y="723"/>
      <point x="164" y="723" type="curve" smooth="yes"/>
      <point x="214" y="723"/>
      <point x="254" y="686"/>
    </contour>
  </outline>
</glyph>
<glyph name="ring" format="1">
  <advance width="330"/>
  <unicode hex="02DA"/>
  <outline>
    <contour>
      <point x="165" y="772" type="curve" smooth="yes"/>
      <point x="229" y="772"/>
      <point x="276" y="723"/>
      <point x="276" y="663" type="curve" smooth="yes"/>
      <point x="276" y="603"/>
      <point x="229" y="555"/>
      <point x="165" y="555" type="curve" smooth="yes"/>
      <point x="101" y="555"/>
      <point x="54" y="603"/>
      <point x="54" y="663" type="curve" smooth="yes"/>
      <point x="54" y="723"/>
      <point x="101" y="772"/>
    </contour>
    <contour>
      <point x="165" y="706" type="curve" smooth="yes"/>
      <point x="142" y="706"/>
      <point x="128" y="686"/>
      <point x="128" y="663" type="curve" smooth="yes"/>
      <point x="128" y="640"/>
      <point x="142" y="621"/>
      <point x="165" y="621" type="curve" smooth="yes"/>
      <point x="188" y="621"/>
      <point x="202" y="640"/>
      <point x="202" y="663" type="curve" smooth="yes"/>
      <point x="202" y="686"/>
      <point x="188" y="706"/>
    </contour>
  </outline>
</glyph>
<glyph name="ogonek" format="1">
  <advance width="330"/>
  <unicode hex="02DB"/>
  <outline>
    <contour>
      <point x="274" y="-152" type="line"/>
      <point x="240" y="-172"/>
      <point x="202" y="-182"/>
      <point x="169" y="-182" type="curve" smooth="yes"/>
      <point x="116" y="-182"/>
      <point x="73" y="-159"/>
      <point x="73" y="-113" type="curve" smooth="yes"/>
      <point x="73" y="-63"/>
      <point x="105" y="-14"/>
      <point x="127" y="13" type="curve"/>
      <point x="192" y="13" type="line"/>
      <point x="186" y="-7"/>
      <point x="174" y="-45"/>
      <point x="174" y="-80" type="curve" smooth="yes"/>
      <point x="174" y="-98"/>
      <point x="181" y="-115"/>
      <point x="214" y="-115" type="curve" smooth="yes"/>
      <point x="228" y="-115"/>
      <point x="245" y="-112"/>
      <point x="269" y="-104" type="curve"/>
    </contour>
  </outline>
</glyph>
<glyph name="tilde" format="1">
  <advance width="330"/>
  <unicode hex="02DC"/>
  <outline>
    <contour>
      <point x="331" y="715" type="line"/>
      <point x="331" y="709"/>
      <point x="331" y="682"/>
      <point x="331" y="676" type="curve" smooth="yes"/>
      <point x="331" y="588"/>
      <point x="296" y="552"/>
      <point x="222" y="552" type="curve" smooth="yes"/>
      <point x="196" y="552"/>
      <point x="174" y="562"/>
      <point x="155" y="573" type="curve" smooth="yes"/>
      <point x="132" y="587"/>
      <point x="115" y="602"/>
      <point x="106" y="602" type="curve" smooth="yes"/>
      <point x="96" y="602"/>
      <point x="89" y="599"/>
      <point x="89" y="555" type="curve"/>
      <point x="-2" y="555" type="line"/>
      <point x="-2" y="561"/>
      <point x="-2" y="580"/>
      <point x="-2" y="586" type="curve" smooth="yes"/>
      <point x="-2" y="674"/>
      <point x="33" y="718"/>
      <point x="107" y="718" type="curve" smooth="yes"/>
      <point x="133" y="718"/>
      <point x="156" y="708"/>
      <point x="175" y="696" type="curve" smooth="yes"/>
      <point x="197" y="683"/>
      <point x="214" y="668"/>
      <point x="223" y="668" type="curve" smooth="yes"/>
      <point x="233" y="668"/>
      <point x="240" y="671"/>
      <point x="240" y="715" type="curve"/>
    </contour>
  </outline>
</glyph>
<glyph name="hungarumlaut" format="1">
  <advance width="330"/>
  <unicode hex="02DD"/>
  <outline>
    <contour>
      <point x="369" y="715" type="line"/>
      <point x="255" y="555" type="line"/>
      <point x="145" y="555" type="line"/>
      <point x="199" y="715" type="line"/>
    </contour>
    <contour>
      <point x="189" y="715" type="line"/>
      <point x="75" y="555" type="line"/>
      <point x="-35" y="555" type="line"/>
      <point x="19" y="715" type="line"/>
    </contour>
  </outline>
</glyph>
<glyph name="endash" format="1">
  <advance width="388"/>
  <unicode hex="2013"/>
  <outline>
    <contour>
      <point x="380" y="270" type="line"/>
      <point x="8" y="270" type="line"/>
      <point x="8" y="438" type="line"/>
      <point x="380" y="438" type="line"/>
    </contour>
  </outline>
</glyph>
<glyph name="emdash" format="1">
  <advance width="478"/>
  <unicode hex="2014"/>
  <outline>
    <contour>
      <point x="470" y="270" type="line"/>
      <point x="8" y="270" type="line"/>
      <point x="8" y="438" type="line"/>
      <point x="470" y="438" type="line"/>
    </contour>
  </outline>
</glyph>
<glyph name="quoteleft" format="1">
  <advance width="222"/>
  <unicode hex="2018"/>
  <unicode hex="02BB"/>
  <outline>
    <contour>
      <point x="207" y="700" type="line"/>
      <point x="191" y="418" type="line"/>
      <point x="8" y="418" type="line"/>
      <point x="98" y="700" type="line"/>
    </contour>
  </outline>
</glyph>
<glyph name="quoteright" format="1">
  <advance width="222"/>
  <unicode hex="2019"/>
  <unicode hex="02BC"/>
  <outline>
    <contour>
      <point x="214" y="700" type="line"/>
      <point x="124" y="418" type="line"/>
      <point x="15" y="418" type="line"/>
      <point x="31" y="700" type="line"/>
    </contour>
  </outline>
</glyph>
<glyph name="quotesinglbase" format="1">
  <advance width="221"/>
  <unicode hex="201A"/>
  <outline>
    <contour>
      <point x="211" y="185" type="line"/>
      <point x="121" y="-97" type="line"/>
      <point x="12" y="-97" type="line"/>
      <point x="26" y="185" type="line"/>
    </contour>
  </outline>
</glyph>
<glyph name="quotedblleft" format="1">
  <advance width="430"/>
  <unicode hex="201C"/>
  <outline>
    <contour>
      <point x="415" y="700" type="line"/>
      <point x="399" y="418" type="line"/>
      <point x="216" y="418" type="line"/>
      <point x="306" y="700" type="line"/>
    </contour>
    <contour>
      <point x="207" y="700" type="line"/>
      <point x="191" y="418" type="line"/>
      <point x="8" y="418" type="line"/>
      <point x="98" y="700" type="line"/>
    </contour>
  </outline>
</glyph>
<glyph name="quotedblright" format="1">
  <advance width="430"/>
  <unicode hex="201D"/>
  <outline>
    <contour>
      <point x="422" y="700" type="line"/>
      <point x="332" y="418" type="line"/>
      <point x="223" y="418" type="line"/>
      <point x="237" y="700" type="line"/>
    </contour>
    <contour>
      <point x="214" y="700" type="line"/>
      <point x="124" y="418" type="line"/>
      <point x="15" y="418" type="line"/>
      <point x="31" y="700" type="line"/>
    </contour>
  </outline>
</glyph>
<glyph name="quotedblbase" format="1">
  <advance width="427"/>
  <unicode hex="201E"/>
  <outline>
    <contour>
      <point x="417" y="185" type="line"/>
      <point x="329" y="-97" type="line"/>
      <point x="220" y="-97" type="line"/>
      <point x="234" y="185" type="line"/>
    </contour>
    <contour>
      <point x="211" y="185" type="line"/>
      <point x="121" y="-97" type="line"/>
      <point x="12" y="-97" type="line"/>
      <point x="26" y="185" type="line"/>
    </contour>
  </outline>
</glyph>
<glyph name="dagger" format="1">
  <advance width="346"/>
  <unicode hex="2020"/>
  <outline>
    <contour>
      <point x="339" y="347" type="line"/>
      <point x="264" y="347" type="line"/>
      <point x="264" y="-100" type="line"/>
      <point x="82" y="-100" type="line"/>
      <point x="82" y="347" type="line"/>
      <point x="7" y="347" type="line"/>
      <point x="7" y="522" type="line"/>
      <point x="82" y="522" type="line"/>
      <point x="82" y="700" type="line"/>
      <point x="264" y="700" type="line"/>
      <point x="264" y="522" type="line"/>
      <point x="339" y="522" type="line"/>
    </contour>
  </outline>
</glyph>
<glyph name="daggerdbl" format="1">
  <advance width="346"/>
  <unicode hex="2021"/>
  <outline>
    <contour>
      <point x="339" y="80" type="line"/>
      <point x="259" y="80" type="line"/>
      <point x="259" y="-100" type="line"/>
      <point x="87" y="-100" type="line"/>
      <point x="87" y="80" type="line"/>
      <point x="7" y="80" type="line"/>
      <point x="7" y="241" type="line"/>
      <point x="87" y="241" type="line"/>
      <point x="87" y="361" type="line"/>
      <point x="7" y="361" type="line"/>
      <point x="7" y="522" type="line"/>
      <point x="87" y="522" type="line"/>
      <point x="87" y="700" type="line"/>
      <point x="259" y="700" type="line"/>
      <point x="259" y="522" type="line"/>
      <point x="339" y="522" type="line"/>
      <point x="339" y="361" type="line"/>
      <point x="259" y="361" type="line"/>
      <point x="259" y="241" type="line"/>
      <point x="339" y="241" type="line"/>
    </contour>
  </outline>
</glyph>
<glyph name="ellipsis" format="1">
  <advance width="667"/>
  <unicode hex="2026"/>
  <outline>
    <contour>
      <point x="652" y="92" type="curve" smooth="yes"/>
      <point x="652" y="30"/>
      <point x="613" y="-11"/>
      <point x="554" y="-11" type="curve" smooth="yes"/>
      <point x="495" y="-11"/>
      <point x="456" y="30"/>
      <point x="456" y="92" type="curve" smooth="yes"/>
      <point x="456" y="154"/>
      <point x="495" y="195"/>
      <point x="554" y="195" type="curve" smooth="yes"/>
      <point x="613" y="195"/>
      <point x="652" y="154"/>
    </contour>
    <contour>
      <point x="432" y="92" type="curve" smooth="yes"/>
      <point x="432" y="30"/>
      <point x="393" y="-11"/>
      <point x="334" y="-11" type="curve" smooth="yes"/>
      <point x="275" y="-11"/>
      <point x="236" y="30"/>
      <point x="236" y="92" type="curve" smooth="yes"/>
      <point x="236" y="154"/>
      <point x="275" y="195"/>
      <point x="334" y="195" type="curve" smooth="yes"/>
      <point x="393" y="195"/>
      <point x="432" y="154"/>
    </contour>
    <contour>
      <point x="212" y="92" type="curve" smooth="yes"/>
      <point x="212" y="30"/>
      <point x="173" y="-11"/>
      <point x="114" y="-11" type="curve" smooth="yes"/>
      <point x="55" y="-11"/>
      <point x="16" y="30"/>
      <point x="16" y="92" type="curve" smooth="yes"/>
      <point x="16" y="154"/>
      <point x="55" y="195"/>
      <point x="114" y="195" type="curve" smooth="yes"/>
      <point x="173" y="195"/>
      <point x="212" y="154"/>
    </contour>
  </outline>
</glyph>
<glyph name="perthousand" format="1">
  <advance width="1131"/>
  <unicode hex="2030"/>
  <outline>
    <contour>
      <point x="332" y="494" type="curve" smooth="yes"/>
      <point x="332" y="339"/>
      <point x="276" y="275"/>
      <point x="171" y="275" type="curve" smooth="yes"/>
      <point x="68" y="275"/>
      <point x="12" y="337"/>
      <point x="12" y="492" type="curve" smooth="yes"/>
      <point x="12" y="645"/>
      <point x="72" y="711"/>
      <point x="173" y="711" type="curve" smooth="yes"/>
      <point x="274" y="711"/>
      <point x="332" y="649"/>
    </contour>
    <contour>
      <point x="627" y="700" type="line"/>
      <point x="320" y="0" type="line"/>
      <point x="173" y="0" type="line"/>
      <point x="480" y="700" type="line"/>
    </contour>
    <contour>
      <point x="1119" y="208" type="curve" smooth="yes"/>
      <point x="1119" y="53"/>
      <point x="1063" y="-11"/>
      <point x="958" y="-11" type="curve" smooth="yes"/>
      <point x="855" y="-11"/>
      <point x="799" y="51"/>
      <point x="799" y="206" type="curve" smooth="yes"/>
      <point x="799" y="359"/>
      <point x="859" y="425"/>
      <point x="960" y="425" type="curve" smooth="yes"/>
      <point x="1061" y="425"/>
      <point x="1119" y="363"/>
    </contour>
    <contour>
      <point x="785" y="208" type="curve" smooth="yes"/>
      <point x="785" y="53"/>
      <point x="729" y="-11"/>
      <point x="624" y="-11" type="curve" smooth="yes"/>
      <point x="521" y="-11"/>
      <point x="465" y="51"/>
      <point x="465" y="206" type="curve" smooth="yes"/>
      <point x="465" y="359"/>
      <point x="525" y="425"/>
      <point x="626" y="425" type="curve" smooth="yes"/>
      <point x="727" y="425"/>
      <point x="785" y="363"/>
    </contour>
    <contour>
      <point x="187" y="493" type="curve" smooth="yes"/>
      <point x="187" y="592"/>
      <point x="182" y="600"/>
      <point x="172" y="600" type="curve" smooth="yes"/>
      <point x="162" y="600"/>
      <point x="157" y="592"/>
      <point x="157" y="493" type="curve" smooth="yes"/>
      <point x="157" y="394"/>
      <point x="162" y="386"/>
      <point x="172" y="386" type="curve" smooth="yes"/>
      <point x="182" y="386"/>
      <point x="187" y="394"/>
    </contour>
    <contour>
      <point x="974" y="207" type="curve" smooth="yes"/>
      <point x="974" y="306"/>
      <point x="969" y="314"/>
      <point x="959" y="314" type="curve" smooth="yes"/>
      <point x="949" y="314"/>
      <point x="944" y="306"/>
      <point x="944" y="207" type="curve" smooth="yes"/>
      <point x="944" y="108"/>
      <point x="949" y="100"/>
      <point x="959" y="100" type="curve" smooth="yes"/>
      <point x="969" y="100"/>
      <point x="974" y="108"/>
    </contour>
    <contour>
      <point x="640" y="207" type="curve" smooth="yes"/>
      <point x="640" y="306"/>
      <point x="635" y="314"/>
      <point x="625" y="314" type="curve" smooth="yes"/>
      <point x="615" y="314"/>
      <point x="610" y="306"/>
      <point x="610" y="207" type="curve" smooth="yes"/>
      <point x="610" y="108"/>
      <point x="615" y="100"/>
      <point x="625" y="100" type="curve" smooth="yes"/>
      <point x="635" y="100"/>
      <point x="640" y="108"/>
    </contour>
  </outline>
</glyph>
<glyph name="guilsinglleft" format="1">
  <advance width="261"/>
  <unicode hex="2039"/>
  <outline>
    <contour>
      <point x="248" y="0" type="line"/>
      <point x="65" y="0" type="line"/>
      <point x="8" y="262" type="line"/>
      <point x="65" y="525" type="line"/>
      <point x="248" y="525" type="line"/>
      <point x="191" y="262" type="line"/>
    </contour>
  </outline>
</glyph>
<glyph name="guilsinglright" format="1">
  <advance width="261"/>
  <unicode hex="203A"/>
  <outline>
    <contour>
      <point x="13" y="525" type="line"/>
      <point x="196" y="525" type="line"/>
      <point x="253" y="263" type="line"/>
      <point x="196" y="0" type="line"/>
      <point x="13" y="0" type="line"/>
      <point x="70" y="263" type="line"/>
    </contour>
  </outline>
</glyph>
<glyph name="fraction" format="1">
  <advance width="404"/>
  <unicode hex="2044"/>
  <outline>
    <contour>
      <point x="454" y="700" type="line"/>
      <point x="169" y="0" type="line"/>
      <point x="-50" y="0" type="line"/>
      <point x="235" y="700" type="line"/>
    </contour>
  </outline>
</glyph>
<glyph name="Euro" format="1">
  <advance width="397"/>
  <unicode hex="20AC"/>
  <outline>
    <contour>
      <point x="184" y="358" type="line"/>
      <point x="184" y="355"/>
      <point x="184" y="353"/>
      <point x="184" y="350" type="curve" smooth="yes"/>
      <point x="184" y="348"/>
      <point x="184" y="347"/>
      <point x="184" y="345" type="curve"/>
      <point x="283" y="345" type="line"/>
      <point x="283" y="254" type="line"/>
      <point x="185" y="254" type="line"/>
      <point x="187" y="150"/>
      <point x="195" y="144"/>
      <point x="204" y="144" type="curve" smooth="yes"/>
      <point x="214" y="144"/>
      <point x="222" y="157"/>
      <point x="227" y="238" type="curve"/>
      <point x="392" y="211" type="line"/>
      <point x="372" y="79"/>
      <point x="334" y="-11"/>
      <point x="209" y="-11" type="curve" smooth="yes"/>
      <point x="79" y="-11"/>
      <point x="11" y="64"/>
      <point x="11" y="350" type="curve" smooth="yes"/>
      <point x="11" y="636"/>
      <point x="79" y="711"/>
      <point x="209" y="711" type="curve" smooth="yes"/>
      <point x="338" y="711"/>
      <point x="373" y="622"/>
      <point x="391" y="486" type="curve"/>
      <point x="224" y="463" type="line"/>
      <point x="222" y="543"/>
      <point x="217" y="556"/>
      <point x="204" y="556" type="curve" smooth="yes"/>
      <point x="195" y="556"/>
      <point x="188" y="550"/>
      <point x="185" y="449" type="curve"/>
      <point x="283" y="449" type="line"/>
      <point x="283" y="358" type="line"/>
    </contour>
  </outline>
</glyph>
<glyph name="uni2117" format="1">
  <advance width="468"/>
  <unicode hex="2117"/>
  <outline>
    <contour>
      <point x="454" y="350" type="curve" smooth="yes"/>
      <point x="454" y="124"/>
      <point x="406" y="-11"/>
      <point x="233" y="-11" type="curve" smooth="yes"/>
      <point x="60" y="-11"/>
      <point x="14" y="124"/>
      <point x="14" y="350" type="curve" smooth="yes"/>
      <point x="14" y="576"/>
      <point x="60" y="711"/>
      <point x="233" y="711" type="curve" smooth="yes"/>
      <point x="406" y="711"/>
      <point x="454" y="576"/>
    </contour>
    <contour>
      <point x="387" y="350" type="curve" smooth="yes"/>
      <point x="387" y="551"/>
      <point x="352" y="653"/>
      <point x="233" y="653" type="curve" smooth="yes"/>
      <point x="114" y="653"/>
      <point x="81" y="551"/>
      <point x="81" y="350" type="curve" smooth="yes"/>
      <point x="81" y="149"/>
      <point x="114" y="47"/>
      <point x="233" y="47" type="curve" smooth="yes"/>
      <point x="353" y="47"/>
      <point x="387" y="148"/>
    </contour>
    <contour>
      <point x="354" y="419" type="curve" smooth="yes"/>
      <point x="354" y="321"/>
      <point x="312" y="289"/>
      <point x="243" y="289" type="curve" smooth="yes"/>
      <point x="238" y="289" type="line"/>
      <point x="238" y="150" type="line"/>
      <point x="136" y="150" type="line"/>
      <point x="136" y="549" type="line"/>
      <point x="243" y="549" type="line" smooth="yes"/>
      <point x="312" y="549"/>
      <point x="354" y="517"/>
    </contour>
    <contour>
      <point x="253" y="417" type="curve" smooth="yes"/>
      <point x="253" y="461"/>
      <point x="250" y="467"/>
      <point x="237" y="467" type="curve" smooth="yes"/>
      <point x="235" y="467" type="line"/>
      <point x="235" y="367" type="line"/>
      <point x="237" y="367" type="line" smooth="yes"/>
      <point x="250" y="367"/>
      <point x="253" y="373"/>
    </contour>
  </outline>
</glyph>
<glyph name="trademark" format="1">
  <advance width="538"/>
  <unicode hex="2122"/>
  <outline>
    <contour>
      <point x="211" y="612" type="line"/>
      <point x="164" y="612" type="line"/>
      <point x="164" y="301" type="line"/>
      <point x="52" y="301" type="line"/>
      <point x="52" y="612" type="line"/>
      <point x="5" y="612" type="line"/>
      <point x="5" y="700" type="line"/>
      <point x="211" y="700" type="line"/>
    </contour>
    <contour>
      <point x="515" y="301" type="line"/>
      <point x="411" y="301" type="line"/>
      <point x="411" y="375" type="line" smooth="yes"/>
      <point x="411" y="417"/>
      <point x="412" y="477"/>
      <point x="413" y="512" type="curve"/>
      <point x="407" y="473"/>
      <point x="396" y="410"/>
      <point x="387" y="367" type="curve" smooth="yes"/>
      <point x="371" y="294" type="line"/>
      <point x="366" y="294" type="line"/>
      <point x="350" y="367" type="line" smooth="yes"/>
      <point x="341" y="410"/>
      <point x="330" y="471"/>
      <point x="324" y="512" type="curve"/>
      <point x="325" y="479"/>
      <point x="326" y="416"/>
      <point x="326" y="375" type="curve" smooth="yes"/>
      <point x="326" y="301" type="line"/>
      <point x="225" y="301" type="line"/>
      <point x="225" y="700" type="line"/>
      <point x="343" y="700" type="line"/>
      <point x="353" y="632" type="line" smooth="yes"/>
      <point x="358" y="597"/>
      <point x="367" y="541"/>
      <point x="370" y="516" type="curve"/>
      <point x="374" y="541"/>
      <point x="382" y="598"/>
      <point x="387" y="632" type="curve" smooth="yes"/>
      <point x="397" y="700" type="line"/>
      <point x="515" y="700" type="line"/>
    </contour>
  </outline>
</glyph>
<glyph name="arrowleft" format="1">
  <advance width="389"/>
  <unicode hex="2190"/>
  <outline>
    <contour>
      <point x="378" y="289" type="line"/>
      <point x="202" y="289" type="line"/>
      <point x="209" y="263" type="line" smooth="yes"/>
      <point x="214" y="243"/>
      <point x="216" y="223"/>
      <point x="203" y="214" type="curve" smooth="yes"/>
      <point x="187" y="203"/>
      <point x="172" y="207"/>
      <point x="151" y="227" type="curve" smooth="yes"/>
      <point x="10" y="362" type="line"/>
      <point x="151" y="497" type="line" smooth="yes"/>
      <point x="172" y="517"/>
      <point x="187" y="521"/>
      <point x="203" y="510" type="curve" smooth="yes"/>
      <point x="216" y="501"/>
      <point x="214" y="481"/>
      <point x="209" y="461" type="curve" smooth="yes"/>
      <point x="202" y="435" type="line"/>
      <point x="378" y="435" type="line"/>
    </contour>
  </outline>
</glyph>
<glyph name="arrowup" format="1">
  <advance width="315"/>
  <unicode hex="2191"/>
  <outline>
    <contour>
      <point x="230" y="0" type="line"/>
      <point x="84" y="0" type="line"/>
      <point x="84" y="545" type="line"/>
      <point x="58" y="538" type="line" smooth="yes"/>
      <point x="38" y="533"/>
      <point x="18" y="531"/>
      <point x="9" y="544" type="curve" smooth="yes"/>
      <point x="-2" y="560"/>
      <point x="2" y="575"/>
      <point x="22" y="596" type="curve" smooth="yes"/>
      <point x="157" y="737" type="line"/>
      <point x="292" y="596" type="line" smooth="yes"/>
      <point x="312" y="575"/>
      <point x="316" y="560"/>
      <point x="305" y="544" type="curve" smooth="yes"/>
      <point x="296" y="531"/>
      <point x="276" y="533"/>
      <point x="256" y="538" type="curve" smooth="yes"/>
      <point x="230" y="545" type="line"/>
    </contour>
  </outline>
</glyph>
<glyph name="arrowright" format="1">
  <advance width="389"/>
  <unicode hex="2192"/>
  <outline>
    <contour>
      <point x="11" y="435" type="line"/>
      <point x="187" y="435" type="line"/>
      <point x="180" y="461" type="line" smooth="yes"/>
      <point x="175" y="481"/>
      <point x="173" y="501"/>
      <point x="186" y="510" type="curve" smooth="yes"/>
      <point x="202" y="521"/>
      <point x="217" y="517"/>
      <point x="238" y="497" type="curve" smooth="yes"/>
      <point x="379" y="362" type="line"/>
      <point x="238" y="227" type="line" smooth="yes"/>
      <point x="217" y="207"/>
      <point x="202" y="203"/>
      <point x="186" y="214" type="curve" smooth="yes"/>
      <point x="173" y="223"/>
      <point x="175" y="243"/>
      <point x="180" y="263" type="curve" smooth="yes"/>
      <point x="187" y="289" type="line"/>
      <point x="11" y="289" type="line"/>
    </contour>
  </outline>
</glyph>
<glyph name="arrowdown" format="1">
  <advance width="315"/>
  <unicode hex="2193"/>
  <outline>
    <contour>
      <point x="85" y="700" type="line"/>
      <point x="231" y="700" type="line"/>
      <point x="231" y="155" type="line"/>
      <point x="257" y="162" type="line" smooth="yes"/>
      <point x="277" y="167"/>
      <point x="297" y="169"/>
      <point x="306" y="156" type="curve" smooth="yes"/>
      <point x="317" y="140"/>
      <point x="313" y="125"/>
      <point x="293" y="104" type="curve" smooth="yes"/>
      <point x="158" y="-37" type="line"/>
      <point x="23" y="104" type="line" smooth="yes"/>
      <point x="3" y="125"/>
      <point x="-1" y="140"/>
      <point x="10" y="156" type="curve" smooth="yes"/>
      <point x="19" y="169"/>
      <point x="39" y="167"/>
      <point x="59" y="162" type="curve" smooth="yes"/>
      <point x="85" y="155" type="line"/>
    </contour>
  </outline>
</glyph>
<glyph name="arrowboth" format="1">
  <advance width="595"/>
  <unicode hex="2194"/>
  <outline>
    <contour>
      <point x="202" y="289" type="line"/>
      <point x="209" y="263" type="line" smooth="yes"/>
      <point x="214" y="243"/>
      <point x="216" y="223"/>
      <point x="203" y="214" type="curve" smooth="yes"/>
      <point x="187" y="203"/>
      <point x="172" y="207"/>
      <point x="151" y="227" type="curve" smooth="yes"/>
      <point x="10" y="362" type="line"/>
      <point x="151" y="497" type="line" smooth="yes"/>
      <point x="172" y="517"/>
      <point x="187" y="521"/>
      <point x="203" y="510" type="curve" smooth="yes"/>
      <point x="216" y="501"/>
      <point x="214" y="481"/>
      <point x="209" y="461" type="curve" smooth="yes"/>
      <point x="202" y="435" type="line"/>
      <point x="393" y="435" type="line"/>
      <point x="386" y="461" type="line" smooth="yes"/>
      <point x="381" y="481"/>
      <point x="379" y="501"/>
      <point x="392" y="510" type="curve" smooth="yes"/>
      <point x="408" y="521"/>
      <point x="423" y="517"/>
      <point x="444" y="497" type="curve" smooth="yes"/>
      <point x="585" y="362" type="line"/>
      <point x="444" y="227" type="line" smooth="yes"/>
      <point x="423" y="207"/>
      <point x="408" y="203"/>
      <point x="392" y="214" type="curve" smooth="yes"/>
      <point x="379" y="223"/>
      <point x="381" y="243"/>
      <point x="386" y="263" type="curve" smooth="yes"/>
      <point x="393" y="289" type="line"/>
    </contour>
  </outline>
</glyph>
<glyph name="arrowupdn" format="1">
  <advance width="316"/>
  <unicode hex="2195"/>
  <outline>
    <contour>
      <point x="231" y="179" type="line"/>
      <point x="257" y="186" type="line" smooth="yes"/>
      <point x="277" y="191"/>
      <point x="297" y="193"/>
      <point x="306" y="180" type="curve" smooth="yes"/>
      <point x="317" y="164"/>
      <point x="313" y="149"/>
      <point x="293" y="128" type="curve" smooth="yes"/>
      <point x="158" y="-13" type="line"/>
      <point x="23" y="128" type="line" smooth="yes"/>
      <point x="3" y="149"/>
      <point x="-1" y="164"/>
      <point x="10" y="180" type="curve" smooth="yes"/>
      <point x="19" y="193"/>
      <point x="39" y="191"/>
      <point x="59" y="186" type="curve" smooth="yes"/>
      <point x="85" y="179" type="line"/>
      <point x="85" y="545" type="line"/>
      <point x="59" y="538" type="line" smooth="yes"/>
      <point x="39" y="533"/>
      <point x="19" y="531"/>
      <point x="10" y="544" type="curve" smooth="yes"/>
      <point x="-1" y="560"/>
      <point x="3" y="575"/>
      <point x="23" y="596" type="curve" smooth="yes"/>
      <point x="158" y="737" type="line"/>
      <point x="293" y="596" type="line" smooth="yes"/>
      <point x="313" y="575"/>
      <point x="317" y="560"/>
      <point x="306" y="544" type="curve" smooth="yes"/>
      <point x="297" y="531"/>
      <point x="277" y="533"/>
      <point x="257" y="538" type="curve" smooth="yes"/>
      <point x="231" y="545" type="line"/>
    </contour>
  </outline>
</glyph>
<glyph name="radical" format="1">
  <advance width="492"/>
  <unicode hex="221A"/>
  <outline>
    <contour>
      <point x="493" y="700" type="line"/>
      <point x="337" y="0" type="line"/>
      <point x="107" y="0" type="line"/>
      <point x="-1" y="340" type="line"/>
      <point x="181" y="340" type="line"/>
      <point x="181" y="340"/>
      <point x="186" y="324"/>
      <point x="192" y="298" type="curve" smooth="yes"/>
      <point x="201" y="261"/>
      <point x="212" y="197"/>
      <point x="217" y="147" type="curve"/>
      <point x="219" y="191"/>
      <point x="231" y="287"/>
      <point x="251" y="422" type="curve" smooth="yes"/>
      <point x="271" y="562"/>
      <point x="296" y="700"/>
      <point x="296" y="700" type="curve"/>
    </contour>
  </outline>
</glyph>
<glyph name="apple" format="1">
  <advance width="680"/>
  <unicode hex="F8FF"/>
  <outline>
    <contour>
      <point x="413" y="289" type="line"/>
      <point x="413" y="179" type="line"/>
      <point x="439" y="186" type="line" smooth="yes"/>
      <point x="459" y="191"/>
      <point x="479" y="193"/>
      <point x="488" y="180" type="curve" smooth="yes"/>
      <point x="499" y="164"/>
      <point x="495" y="149"/>
      <point x="475" y="128" type="curve" smooth="yes"/>
      <point x="340" y="-13" type="line"/>
      <point x="205" y="128" type="line" smooth="yes"/>
      <point x="185" y="149"/>
      <point x="181" y="164"/>
      <point x="192" y="180" type="curve" smooth="yes"/>
      <point x="201" y="193"/>
      <point x="221" y="191"/>
      <point x="241" y="186" type="curve" smooth="yes"/>
      <point x="267" y="179" type="line"/>
      <point x="267" y="289" type="line"/>
      <point x="202" y="289" type="line"/>
      <point x="209" y="263" type="line" smooth="yes"/>
      <point x="214" y="243"/>
      <point x="216" y="223"/>
      <point x="203" y="214" type="curve" smooth="yes"/>
      <point x="187" y="203"/>
      <point x="172" y="207"/>
      <point x="151" y="227" type="curve" smooth="yes"/>
      <point x="10" y="362" type="line"/>
      <point x="151" y="497" type="line" smooth="yes"/>
      <point x="172" y="517"/>
      <point x="187" y="521"/>
      <point x="203" y="510" type="curve" smooth="yes"/>
      <point x="216" y="501"/>
      <point x="214" y="481"/>
      <point x="209" y="461" type="curve" smooth="yes"/>
      <point x="202" y="435" type="line"/>
      <point x="267" y="435" type="line"/>
      <point x="267" y="545" type="line"/>
      <point x="241" y="538" type="line" smooth="yes"/>
      <point x="221" y="533"/>
      <point x="201" y="531"/>
      <point x="192" y="544" type="curve" smooth="yes"/>
      <point x="181" y="560"/>
      <point x="185" y="575"/>
      <point x="205" y="596" type="curve" smooth="yes"/>
      <point x="340" y="737" type="line"/>
      <point x="475" y="596" type="line" smooth="yes"/>
      <point x="495" y="575"/>
      <point x="499" y="560"/>
      <point x="488" y="544" type="curve" smooth="yes"/>
      <point x="479" y="531"/>
      <point x="459" y="533"/>
      <point x="439" y="538" type="curve" smooth="yes"/>
      <point x="413" y="545" type="line"/>
      <point x="413" y="435" type="line"/>
      <point x="478" y="435" type="line"/>
      <point x="471" y="461" type="line" smooth="yes"/>
      <point x="466" y="481"/>
      <point x="464" y="501"/>
      <point x="477" y="510" type="curve" smooth="yes"/>
      <point x="493" y="521"/>
      <point x="508" y="517"/>
      <point x="529" y="497" type="curve" smooth="yes"/>
      <point x="670" y="362" type="line"/>
      <point x="529" y="227" type="line" smooth="yes"/>
      <point x="508" y="207"/>
      <point x="493" y="203"/>
      <point x="477" y="214" type="curve" smooth="yes"/>
      <point x="464" y="223"/>
      <point x="466" y="243"/>
      <point x="471" y="263" type="curve" smooth="yes"/>
      <point x="478" y="289" type="line"/>
    </contour>
  </outline>
</glyph>
<glyph name="fi" format="1">
  <advance width="466"/>
  <unicode hex="FB01"/>
  <outline>
    <contour>
      <point x="457" y="632" type="curve" smooth="yes"/>
      <point x="457" y="585"/>
      <point x="424" y="550"/>
      <point x="368" y="550" type="curve" smooth="yes"/>
      <point x="312" y="550"/>
      <point x="279" y="585"/>
      <point x="279" y="632" type="curve" smooth="yes"/>
      <point x="279" y="679"/>
      <point x="312" y="714"/>
      <point x="368" y="714" type="curve" smooth="yes"/>
      <point x="424" y="714"/>
      <point x="457" y="679"/>
    </contour>
    <contour>
      <point x="261" y="588" type="line"/>
      <point x="255" y="590"/>
      <point x="245" y="590"/>
      <point x="238" y="590" type="curve" smooth="yes"/>
      <point x="218" y="590"/>
      <point x="208" y="577"/>
      <point x="208" y="550" type="curve" smooth="yes"/>
      <point x="208" y="525" type="line"/>
      <point x="261" y="525" type="line"/>
      <point x="261" y="386" type="line"/>
      <point x="208" y="386" type="line"/>
      <point x="208" y="0" type="line"/>
      <point x="41" y="0" type="line"/>
      <point x="41" y="386" type="line"/>
      <point x="4" y="386" type="line"/>
      <point x="4" y="525" type="line"/>
      <point x="41" y="525" type="line"/>
      <point x="41" y="584" type="line" smooth="yes"/>
      <point x="41" y="696"/>
      <point x="105" y="726"/>
      <point x="190" y="726" type="curve" smooth="yes"/>
      <point x="222" y="726"/>
      <point x="247" y="724"/>
      <point x="261" y="721" type="curve"/>
    </contour>
    <contour>
      <point x="448" y="0" type="line"/>
      <point x="278" y="0" type="line"/>
      <point x="278" y="525" type="line"/>
      <point x="448" y="525" type="line"/>
    </contour>
  </outline>
</glyph>
<glyph name="fl" format="1">
  <advance width="462"/>
  <unicode hex="FB02"/>
  <outline>
    <contour>
      <point x="448" y="0" type="line"/>
      <point x="278" y="0" type="line"/>
      <point x="278" y="681" type="line"/>
      <point x="448" y="729" type="line"/>
    </contour>
    <contour>
      <point x="261" y="588" type="line"/>
      <point x="255" y="590"/>
      <point x="245" y="590"/>
      <point x="238" y="590" type="curve" smooth="yes"/>
      <point x="218" y="590"/>
      <point x="208" y="577"/>
      <point x="208" y="550" type="curve" smooth="yes"/>
      <point x="208" y="525" type="line"/>
      <point x="261" y="525" type="line"/>
      <point x="261" y="386" type="line"/>
      <point x="208" y="386" type="line"/>
      <point x="208" y="0" type="line"/>
      <point x="41" y="0" type="line"/>
      <point x="41" y="386" type="line"/>
      <point x="4" y="386" type="line"/>
      <point x="4" y="525" type="line"/>
      <point x="41" y="525" type="line"/>
      <point x="41" y="584" type="line" smooth="yes"/>
      <point x="41" y="696"/>
      <point x="105" y="726"/>
      <point x="190" y="726" type="curve" smooth="yes"/>
      <point x="222" y="726"/>
      <point x="247" y="724"/>
      <point x="261" y="721" type="curve"/>
    </contour>
  </outline>
</glyph>
<glyph name="a.salt" format="1">
  <advance width="391"/>
  <outline>
    <contour>
      <point x="377" y="0" type="line"/>
      <point x="207" y="0" type="line"/>
      <point x="207" y="25" type="line"/>
      <point x="183" y="1"/>
      <point x="161" y="-11"/>
      <point x="128" y="-11" type="curve" smooth="yes"/>
      <point x="56" y="-11"/>
      <point x="10" y="45"/>
      <point x="10" y="259" type="curve" smooth="yes"/>
      <point x="10" y="480"/>
      <point x="57" y="536"/>
      <point x="137" y="536" type="curve" smooth="yes"/>
      <point x="165" y="536"/>
      <point x="187" y="524"/>
      <point x="207" y="502" type="curve"/>
      <point x="207" y="525" type="line"/>
      <point x="377" y="525" type="line"/>
    </contour>
    <contour>
      <point x="207" y="133" type="curve"/>
      <point x="207" y="391" type="line"/>
      <point x="203" y="393"/>
      <point x="202" y="393"/>
      <point x="198" y="393" type="curve" smooth="yes"/>
      <point x="185" y="393"/>
      <point x="180" y="387"/>
      <point x="180" y="262" type="curve" smooth="yes"/>
      <point x="180" y="135"/>
      <point x="185" y="131"/>
      <point x="198" y="131" type="curve" smooth="yes"/>
      <point x="202" y="131"/>
      <point x="203" y="131"/>
    </contour>
  </outline>
</glyph>
<glyph name="bullet" format="1">
  <advance width="439"/>
  <outline>
    <contour>
      <point x="420" y="366" type="curve" smooth="yes"/>
      <point x="420" y="253"/>
      <point x="334" y="167"/>
      <point x="218" y="167" type="curve" smooth="yes"/>
      <point x="105" y="167"/>
      <point x="19" y="253"/>
      <point x="19" y="366" type="curve" smooth="yes"/>
      <point x="19" y="479"/>
      <point x="105" y="567"/>
      <point x="218" y="567" type="curve" smooth="yes"/>
      <point x="334" y="567"/>
      <point x="420" y="479"/>
    </contour>
  </outline>
</glyph>
<glyph name="macron" format="1">
  <advance width="330"/>
  <outline>
    <contour>
      <point x="319" y="570" type="line"/>
      <point x="9" y="570" type="line"/>
      <point x="9" y="685" type="line"/>
      <point x="319" y="685" type="line"/>
    </contour>
  </outline>
</glyph>
<glyph name="registered" format="1">
  <advance width="468"/>
  <outline>
    <contour>
      <point x="454" y="350" type="curve" smooth="yes"/>
      <point x="454" y="124"/>
      <point x="406" y="-11"/>
      <point x="233" y="-11" type="curve" smooth="yes"/>
      <point x="60" y="-11"/>
      <point x="14" y="124"/>
      <point x="14" y="350" type="curve" smooth="yes"/>
      <point x="14" y="576"/>
      <point x="60" y="711"/>
      <point x="233" y="711" type="curve" smooth="yes"/>
      <point x="406" y="711"/>
      <point x="454" y="576"/>
    </contour>
    <contour>
      <point x="387" y="350" type="curve" smooth="yes"/>
      <point x="387" y="551"/>
      <point x="352" y="653"/>
      <point x="233" y="653" type="curve" smooth="yes"/>
      <point x="114" y="653"/>
      <point x="81" y="551"/>
      <point x="81" y="350" type="curve" smooth="yes"/>
      <point x="81" y="149"/>
      <point x="114" y="47"/>
      <point x="233" y="47" type="curve" smooth="yes"/>
      <point x="353" y="47"/>
      <point x="387" y="148"/>
    </contour>
    <contour>
      <point x="350" y="166" type="line"/>
      <point x="249" y="166" type="line"/>
      <point x="236" y="312" type="line"/>
      <point x="230" y="312" type="line"/>
      <point x="230" y="166" type="line"/>
      <point x="131" y="166" type="line"/>
      <point x="131" y="558" type="line"/>
      <point x="236" y="558" type="line" smooth="yes"/>
      <point x="304" y="558"/>
      <point x="345" y="525"/>
      <point x="345" y="443" type="curve" smooth="yes"/>
      <point x="345" y="406"/>
      <point x="335" y="378"/>
      <point x="319" y="357" type="curve"/>
    </contour>
    <contour>
      <point x="246" y="433" type="curve" smooth="yes"/>
      <point x="246" y="472"/>
      <point x="243" y="478"/>
      <point x="230" y="478" type="curve" smooth="yes"/>
      <point x="229" y="478" type="line"/>
      <point x="229" y="388" type="line"/>
      <point x="230" y="388" type="line" smooth="yes"/>
      <point x="243" y="388"/>
      <point x="246" y="394"/>
    </contour>
  </outline>
</glyph>
